# Blender v2.90.1 OBJ File: 'map.blend'
# www.blender.org
mtllib brunch_small.mtl
o Плоскость_Плоскость.005
v -2.790649 9.323715 0.000000
v -3.647797 9.652771 0.000000
v -4.137711 8.879368 0.000000
v -7.043854 6.956112 -0.000000
v -7.701202 5.438595 -0.000000
v -6.948502 5.901031 -0.000000
v -7.470367 4.761314 -0.000000
v -7.032562 5.219368 0.000000
v -7.080261 4.296661 0.000000
v -6.817932 4.577259 0.000000
v -6.555450 4.013004 0.000000
v -5.657349 7.679047 0.000000
v -6.121246 7.485752 -0.000000
v -5.763550 6.978806 0.000000
v -6.400909 6.677605 0.000000
v -6.040009 8.745941 -0.000000
v -6.047424 8.143703 -0.000000
v -5.602112 8.359138 0.000000
v -5.607193 7.924847 0.000000
v -5.808853 8.857018 -0.000000
v -5.789948 9.355705 -0.000000
v -4.993530 8.236320 0.000000
v -3.578033 7.961082 0.000000
v -4.543747 7.421947 0.000000
v -3.912949 12.583664 -0.000000
v -3.597061 11.362640 0.000000
v -2.842346 11.739738 0.000000
v -3.351151 10.467628 0.000000
v -3.644485 14.438595 -0.000000
v -3.840408 13.791283 -0.000000
v -3.107330 13.403332 0.000000
v -3.507874 15.119068 -0.000000
v -3.644547 14.803543 -0.000000
v -3.319366 15.156643 -0.000000
v -2.697296 14.577419 0.000000
v -2.644485 15.511990 -0.000000
v -3.106415 15.388245 -0.000000
v -2.416382 14.835888 0.000000
v -2.358734 15.261490 0.000000
v -2.501144 10.479591 0.000000
v 14.038055 8.228439 0.000000
v 13.893677 9.135162 0.000000
v 12.978912 9.171959 0.000000
v 9.858963 10.724518 -0.000000
v 8.216232 10.533665 -0.000000
v 8.993423 10.113678 -0.000000
v 7.745560 9.994717 -0.000000
v 8.361267 9.845123 0.000000
v 7.538681 9.424385 0.000000
v 7.912949 9.337799 0.000000
v 7.555923 8.828068 0.000000
v 11.178986 9.886341 0.000000
v 10.779388 10.191101 -0.000000
v 10.519669 9.627640 0.000000
v 9.939819 10.028526 0.000000
v 11.910889 10.751797 -0.000000
v 11.385880 10.456665 -0.000000
v 11.795334 10.179066 0.000000
v 11.416885 9.966003 0.000000
v 12.122787 10.607323 -0.000000
v 12.563919 10.840675 -0.000000
v 11.993744 9.590790 0.000000
v 12.464279 8.227692 0.000000
v 11.514069 8.793663 0.000000
v 16.297913 10.832245 -0.000000
v 15.399170 9.947403 0.000000
v 16.103485 9.482948 0.000000
v 14.747559 9.286396 0.000000
v 18.037979 11.528671 -0.000000
v 17.379562 11.374134 -0.000000
v 17.410828 10.545319 0.000000
v 18.695419 11.751133 -0.000000
v 18.353867 11.711460 -0.000000
v 18.822327 11.606789 -0.000000
v 18.632431 10.778294 0.000000
v 19.467850 11.200523 -0.000000
v 19.129440 11.538414 -0.000000
v 18.996841 10.664551 0.000000
v 19.394089 10.827759 0.000000
v 15.183533 8.556618 0.000000
v 14.491562 41.469917 0.000000
v 13.895325 42.168121 0.000000
v 13.095734 41.722244 0.000000
v 9.624054 41.418938 -0.000000
v 8.322220 40.399048 -0.000000
v 9.204361 40.446251 -0.000000
v 8.201874 39.693703 -0.000000
v 8.805176 39.887321 0.000000
v 8.322937 39.099205 0.000000
v 8.687408 39.220604 0.000000
v 8.648773 38.599495 0.000000
v 11.187500 41.392601 0.000000
v 10.687592 41.444107 -0.000000
v 10.760010 40.827911 0.000000
v 10.056152 40.867371 0.000000
v 11.360352 42.512787 -0.000000
v 11.066422 41.987099 -0.000000
v 11.560562 41.963890 0.000000
v 11.348877 41.584671 0.000000
v 11.616486 42.500084 -0.000000
v 11.871078 42.929314 -0.000000
v 12.036774 41.565552 0.000000
v 13.149368 40.648186 0.000000
v 12.043427 40.635246 0.000000
v 15.060944 44.870293 -0.000000
v 14.755890 43.646530 0.000000
v 15.599075 43.617760 0.000000
v 14.544891 42.742653 0.000000
v 16.182068 46.372276 -0.000000
v 15.701004 45.896927 -0.000000
v 16.160095 45.206169 0.000000
v 16.626862 46.905083 -0.000000
v 16.356186 46.693024 -0.000000
v 16.810440 46.848152 -0.000000
v 17.080688 46.042274 0.000000
v 17.573105 46.838364 -0.000000
v 17.108109 46.950050 -0.000000
v 17.450928 46.135368 0.000000
v 17.704666 46.481880 0.000000
v 15.297577 42.347549 0.000000
v 16.036362 29.973991 0.000000
v 15.118942 29.937317 0.000000
v 14.974762 29.033234 0.000000
v 13.065872 26.117653 -0.000000
v 13.062088 24.463875 -0.000000
v 13.570618 25.186245 -0.000000
v 13.541916 23.933060 -0.000000
v 13.762909 24.526882 0.000000
v 14.083954 23.660507 0.000000
v 14.213959 24.021965 0.000000
v 14.678146 23.607460 0.000000
v 14.053543 27.329884 0.000000
v 13.703873 26.968910 -0.000000
v 14.232880 26.644711 0.000000
v 13.766541 26.116039 0.000000
v 13.280228 28.158531 -0.000000
v 13.511520 27.602444 -0.000000
v 13.835388 27.976383 0.000000
v 14.002426 27.575478 0.000000
v 13.448639 28.351952 -0.000000
v 13.268814 28.817482 -0.000000
v 14.442917 28.104202 0.000000
v 15.851913 28.411064 0.000000
v 15.178070 27.534042 0.000000
v 13.716553 32.524544 -0.000000
v 14.489487 31.527931 0.000000
v 15.033600 32.172691 0.000000
v 15.069244 30.803078 0.000000
v 13.229721 34.334473 -0.000000
v 13.305695 33.662453 -0.000000
v 14.132446 33.595963 0.000000
v 13.086166 35.013519 -0.000000
v 13.085388 34.669670 -0.000000
v 13.244446 35.122566 -0.000000
v 14.044830 34.836494 0.000000
v 13.723846 35.715797 -0.000000
v 13.348465 35.419487 -0.000000
v 14.200668 35.184982 0.000000
v 14.085342 35.598686 0.000000
v 15.845245 31.150154 0.000000
v -2.290222 13.375504 0.000000
v -1.903137 13.339096 0.000000
v -1.791595 13.710358 0.000000
v -0.825867 14.826126 -0.000000
v -0.730896 15.519936 -0.000000
v -0.985092 15.245506 -0.000000
v -0.902283 15.769798 -0.000000
v -1.028564 15.533070 0.000000
v -1.114349 15.914783 0.000000
v -1.189346 15.770428 0.000000
v -1.360733 15.970592 0.000000
v -1.308807 14.373169 0.000000
v -1.141678 14.504910 -0.000000
v -1.345383 14.670834 0.000000
v -1.119812 14.866364 0.000000
v -1.031067 13.981754 -0.000000
v -1.096741 14.228180 -0.000000
v -1.253769 14.089531 0.000000
v -1.301224 14.267216 0.000000
v -1.112656 13.910095 -0.000000
v -1.063492 13.704575 -0.000000
v -1.515945 14.070202 0.000000
v -2.124573 14.020985 0.000000
v -1.792236 14.350994 0.000000
v -1.460724 12.174149 -0.000000
v -1.728790 12.636028 0.000000
v -1.993576 12.396175 0.000000
v -1.931183 12.972958 0.000000
v -1.358627 11.387104 -0.000000
v -1.352539 11.673412 -0.000000
v -1.695755 11.747993 0.000000
v -1.336716 11.094025 -0.000000
v -1.316956 11.238277 -0.000000
v -1.409302 11.057198 -0.000000
v -1.729034 11.222439 0.000000
v -1.643967 10.835320 -0.000000
v -1.469711 10.938469 -0.000000
v -1.814117 11.084999 0.000000
v -1.789062 10.904873 0.000000
v -2.276428 12.871124 0.000000
vt 0.000049 0.473855
vt 0.087554 0.551756
vt 0.075815 0.477057
vt 0.244669 0.792927
vt 0.202804 0.869761
vt 0.244669 0.929520
vt 0.186797 0.924184
vt 0.204938 0.973272
vt 0.149447 0.965802
vt 0.160119 0.995682
vt 0.111031 0.999951
vt 0.163320 0.692617
vt 0.148380 0.749175
vt 0.192133 0.722497
vt 0.186797 0.792927
vt 0.227348 0.624321
vt 0.181461 0.639261
vt 0.208139 0.670207
vt 0.167589 0.672342
vt 0.213475 0.608314
vt 0.228415 0.569897
vt 0.131306 0.628589
vt 0.014989 0.602978
vt 0.070480 0.675543
vt 0.192133 0.263631
vt 0.083285 0.292443
vt 0.128105 0.345800
vt 0.080084 0.405559
vt 0.232683 0.114232
vt 0.157984 0.175059
vt 0.226281 0.169723
vt 0.244669 0.058174
vt 0.231616 0.049137
vt 0.244669 0.086574
vt 0.165454 0.072615
vt 0.192132 0.000049
vt 0.152649 0.043802
vt 0.223080 0.024593
vt 0.162253 0.009654
vt 0.016056 0.376747
vt 0.000049 0.473855
vt 0.087554 0.551756
vt 0.075815 0.477057
vt 0.244669 0.792927
vt 0.202804 0.869761
vt 0.244669 0.929520
vt 0.186797 0.924184
vt 0.204938 0.973272
vt 0.149447 0.965802
vt 0.160119 0.995682
vt 0.111031 0.999951
vt 0.163320 0.692617
vt 0.148380 0.749175
vt 0.192133 0.722497
vt 0.186797 0.792927
vt 0.227348 0.624321
vt 0.181461 0.639261
vt 0.208139 0.670207
vt 0.167589 0.672342
vt 0.213475 0.608314
vt 0.228415 0.569897
vt 0.131306 0.628589
vt 0.014989 0.602978
vt 0.070480 0.675543
vt 0.192133 0.263631
vt 0.083285 0.292443
vt 0.128105 0.345800
vt 0.080084 0.405559
vt 0.232683 0.114232
vt 0.157984 0.175059
vt 0.226281 0.169723
vt 0.244669 0.058174
vt 0.231616 0.049137
vt 0.244669 0.086574
vt 0.165454 0.072615
vt 0.192132 0.000049
vt 0.152649 0.043802
vt 0.223080 0.024593
vt 0.162253 0.009654
vt 0.016056 0.376747
vt 0.000049 0.473855
vt 0.087554 0.551756
vt 0.075815 0.477057
vt 0.244669 0.792927
vt 0.202804 0.869761
vt 0.244669 0.929520
vt 0.186797 0.924184
vt 0.204938 0.973272
vt 0.149447 0.965802
vt 0.160119 0.995682
vt 0.111031 0.999951
vt 0.163320 0.692617
vt 0.148380 0.749175
vt 0.192133 0.722497
vt 0.186797 0.792927
vt 0.227348 0.624321
vt 0.181461 0.639261
vt 0.208139 0.670207
vt 0.167589 0.672342
vt 0.213475 0.608314
vt 0.228415 0.569897
vt 0.131306 0.628589
vt 0.014989 0.602978
vt 0.070480 0.675543
vt 0.192133 0.263631
vt 0.083285 0.292443
vt 0.128105 0.345800
vt 0.080084 0.405559
vt 0.232683 0.114232
vt 0.157984 0.175059
vt 0.226281 0.169723
vt 0.244669 0.058174
vt 0.231616 0.049137
vt 0.244669 0.086574
vt 0.165454 0.072615
vt 0.192132 0.000049
vt 0.152649 0.043802
vt 0.223080 0.024593
vt 0.162253 0.009654
vt 0.016056 0.376747
vt 0.000049 0.473855
vt 0.087554 0.551756
vt 0.075815 0.477057
vt 0.244669 0.792927
vt 0.202804 0.869761
vt 0.244669 0.929520
vt 0.186797 0.924184
vt 0.204938 0.973272
vt 0.149447 0.965802
vt 0.160119 0.995682
vt 0.111031 0.999951
vt 0.163320 0.692617
vt 0.148380 0.749175
vt 0.192133 0.722497
vt 0.186797 0.792927
vt 0.227348 0.624321
vt 0.181461 0.639261
vt 0.208139 0.670207
vt 0.167589 0.672342
vt 0.213475 0.608314
vt 0.228415 0.569897
vt 0.131306 0.628589
vt 0.014989 0.602978
vt 0.070480 0.675543
vt 0.192133 0.263631
vt 0.083285 0.292443
vt 0.128105 0.345800
vt 0.080084 0.405559
vt 0.232683 0.114232
vt 0.157984 0.175059
vt 0.226281 0.169723
vt 0.244669 0.058174
vt 0.231616 0.049137
vt 0.244669 0.086574
vt 0.165454 0.072615
vt 0.192132 0.000049
vt 0.152649 0.043802
vt 0.223080 0.024593
vt 0.162253 0.009654
vt 0.016056 0.376747
vt 0.000049 0.473855
vt 0.087554 0.551756
vt 0.075815 0.477057
vt 0.244669 0.792927
vt 0.202804 0.869761
vt 0.244669 0.929520
vt 0.186797 0.924184
vt 0.204938 0.973272
vt 0.149447 0.965802
vt 0.160119 0.995682
vt 0.111031 0.999951
vt 0.163320 0.692617
vt 0.148380 0.749175
vt 0.192133 0.722497
vt 0.186797 0.792927
vt 0.227348 0.624321
vt 0.181461 0.639261
vt 0.208139 0.670207
vt 0.167589 0.672342
vt 0.213475 0.608314
vt 0.228415 0.569897
vt 0.131306 0.628589
vt 0.014989 0.602978
vt 0.070480 0.675543
vt 0.192133 0.263631
vt 0.083285 0.292443
vt 0.128105 0.345800
vt 0.080084 0.405559
vt 0.232683 0.114232
vt 0.157984 0.175059
vt 0.226281 0.169723
vt 0.244669 0.058174
vt 0.231616 0.049137
vt 0.244669 0.086574
vt 0.165454 0.072615
vt 0.192132 0.000049
vt 0.152649 0.043802
vt 0.223080 0.024593
vt 0.162253 0.009654
vt 0.016056 0.376747
vn 0.0000 -0.0000 -1.0000
usemtl None
s 1
f 1/1/1 3/2/1 2/3/1
f 4/4/1 6/5/1 5/6/1
f 5/6/1 8/7/1 7/8/1
f 6/5/1 8/7/1 5/6/1
f 7/8/1 10/9/1 9/10/1
f 9/10/1 10/9/1 11/11/1
f 12/12/1 14/13/1 13/14/1
f 13/14/1 15/15/1 4/4/1
f 16/16/1 18/17/1 17/18/1
f 17/18/1 18/17/1 19/19/1
f 20/20/1 16/16/1 21/21/1
f 18/17/1 16/16/1 20/20/1
f 22/22/1 19/19/1 18/17/1
f 22/22/1 12/12/1 19/19/1
f 3/2/1 23/23/1 22/22/1
f 22/22/1 24/24/1 12/12/1
f 7/8/1 8/7/1 10/9/1
f 25/25/1 27/26/1 26/27/1
f 26/27/1 27/26/1 28/28/1
f 29/29/1 31/30/1 30/31/1
f 30/31/1 31/30/1 25/25/1
f 32/32/1 34/33/1 33/34/1
f 33/34/1 35/35/1 29/29/1
f 34/33/1 35/35/1 33/34/1
f 36/36/1 38/37/1 37/38/1
f 37/38/1 35/35/1 34/33/1
f 36/36/1 39/39/1 38/37/1
f 31/30/1 27/26/1 25/25/1
f 35/35/1 37/38/1 38/37/1
f 31/30/1 29/29/1 35/35/1
f 1/1/1 28/28/1 40/40/1
f 40/40/1 28/28/1 27/26/1
f 24/24/1 22/22/1 23/23/1
f 23/23/1 3/2/1 1/1/1
f 14/13/1 12/12/1 24/24/1
f 1/1/1 2/3/1 28/28/1
f 15/15/1 13/14/1 14/13/1
f 4/4/1 15/15/1 6/5/1
usemtl None.001
f 41/41/1 43/42/1 42/43/1
f 44/44/1 46/45/1 45/46/1
f 45/46/1 48/47/1 47/48/1
f 46/45/1 48/47/1 45/46/1
f 47/48/1 50/49/1 49/50/1
f 49/50/1 50/49/1 51/51/1
f 52/52/1 54/53/1 53/54/1
f 53/54/1 55/55/1 44/44/1
f 56/56/1 58/57/1 57/58/1
f 57/58/1 58/57/1 59/59/1
f 60/60/1 56/56/1 61/61/1
f 58/57/1 56/56/1 60/60/1
f 62/62/1 59/59/1 58/57/1
f 62/62/1 52/52/1 59/59/1
f 43/42/1 63/63/1 62/62/1
f 62/62/1 64/64/1 52/52/1
f 47/48/1 48/47/1 50/49/1
f 65/65/1 67/66/1 66/67/1
f 66/67/1 67/66/1 68/68/1
f 69/69/1 71/70/1 70/71/1
f 70/71/1 71/70/1 65/65/1
f 72/72/1 74/73/1 73/74/1
f 73/74/1 75/75/1 69/69/1
f 74/73/1 75/75/1 73/74/1
f 76/76/1 78/77/1 77/78/1
f 77/78/1 75/75/1 74/73/1
f 76/76/1 79/79/1 78/77/1
f 71/70/1 67/66/1 65/65/1
f 75/75/1 77/78/1 78/77/1
f 71/70/1 69/69/1 75/75/1
f 41/41/1 68/68/1 80/80/1
f 80/80/1 68/68/1 67/66/1
f 64/64/1 62/62/1 63/63/1
f 63/63/1 43/42/1 41/41/1
f 54/53/1 52/52/1 64/64/1
f 41/41/1 42/43/1 68/68/1
f 55/55/1 53/54/1 54/53/1
f 44/44/1 55/55/1 46/45/1
usemtl None.002
f 81/81/1 83/82/1 82/83/1
f 84/84/1 86/85/1 85/86/1
f 85/86/1 88/87/1 87/88/1
f 86/85/1 88/87/1 85/86/1
f 87/88/1 90/89/1 89/90/1
f 89/90/1 90/89/1 91/91/1
f 92/92/1 94/93/1 93/94/1
f 93/94/1 95/95/1 84/84/1
f 96/96/1 98/97/1 97/98/1
f 97/98/1 98/97/1 99/99/1
f 100/100/1 96/96/1 101/101/1
f 98/97/1 96/96/1 100/100/1
f 102/102/1 99/99/1 98/97/1
f 102/102/1 92/92/1 99/99/1
f 83/82/1 103/103/1 102/102/1
f 102/102/1 104/104/1 92/92/1
f 87/88/1 88/87/1 90/89/1
f 105/105/1 107/106/1 106/107/1
f 106/107/1 107/106/1 108/108/1
f 109/109/1 111/110/1 110/111/1
f 110/111/1 111/110/1 105/105/1
f 112/112/1 114/113/1 113/114/1
f 113/114/1 115/115/1 109/109/1
f 114/113/1 115/115/1 113/114/1
f 116/116/1 118/117/1 117/118/1
f 117/118/1 115/115/1 114/113/1
f 116/116/1 119/119/1 118/117/1
f 111/110/1 107/106/1 105/105/1
f 115/115/1 117/118/1 118/117/1
f 111/110/1 109/109/1 115/115/1
f 81/81/1 108/108/1 120/120/1
f 120/120/1 108/108/1 107/106/1
f 104/104/1 102/102/1 103/103/1
f 103/103/1 83/82/1 81/81/1
f 94/93/1 92/92/1 104/104/1
f 81/81/1 82/83/1 108/108/1
f 95/95/1 93/94/1 94/93/1
f 84/84/1 95/95/1 86/85/1
usemtl None.039
f 121/121/1 123/122/1 122/123/1
f 124/124/1 126/125/1 125/126/1
f 125/126/1 128/127/1 127/128/1
f 126/125/1 128/127/1 125/126/1
f 127/128/1 130/129/1 129/130/1
f 129/130/1 130/129/1 131/131/1
f 132/132/1 134/133/1 133/134/1
f 133/134/1 135/135/1 124/124/1
f 136/136/1 138/137/1 137/138/1
f 137/138/1 138/137/1 139/139/1
f 140/140/1 136/136/1 141/141/1
f 138/137/1 136/136/1 140/140/1
f 142/142/1 139/139/1 138/137/1
f 142/142/1 132/132/1 139/139/1
f 123/122/1 143/143/1 142/142/1
f 142/142/1 144/144/1 132/132/1
f 127/128/1 128/127/1 130/129/1
f 145/145/1 147/146/1 146/147/1
f 146/147/1 147/146/1 148/148/1
f 149/149/1 151/150/1 150/151/1
f 150/151/1 151/150/1 145/145/1
f 152/152/1 154/153/1 153/154/1
f 153/154/1 155/155/1 149/149/1
f 154/153/1 155/155/1 153/154/1
f 156/156/1 158/157/1 157/158/1
f 157/158/1 155/155/1 154/153/1
f 156/156/1 159/159/1 158/157/1
f 151/150/1 147/146/1 145/145/1
f 155/155/1 157/158/1 158/157/1
f 151/150/1 149/149/1 155/155/1
f 121/121/1 148/148/1 160/160/1
f 160/160/1 148/148/1 147/146/1
f 144/144/1 142/142/1 143/143/1
f 143/143/1 123/122/1 121/121/1
f 134/133/1 132/132/1 144/144/1
f 121/121/1 122/123/1 148/148/1
f 135/135/1 133/134/1 134/133/1
f 124/124/1 135/135/1 126/125/1
usemtl None.018
f 161/161/1 163/162/1 162/163/1
f 164/164/1 166/165/1 165/166/1
f 165/166/1 168/167/1 167/168/1
f 166/165/1 168/167/1 165/166/1
f 167/168/1 170/169/1 169/170/1
f 169/170/1 170/169/1 171/171/1
f 172/172/1 174/173/1 173/174/1
f 173/174/1 175/175/1 164/164/1
f 176/176/1 178/177/1 177/178/1
f 177/178/1 178/177/1 179/179/1
f 180/180/1 176/176/1 181/181/1
f 178/177/1 176/176/1 180/180/1
f 182/182/1 179/179/1 178/177/1
f 182/182/1 172/172/1 179/179/1
f 163/162/1 183/183/1 182/182/1
f 182/182/1 184/184/1 172/172/1
f 167/168/1 168/167/1 170/169/1
f 185/185/1 187/186/1 186/187/1
f 186/187/1 187/186/1 188/188/1
f 189/189/1 191/190/1 190/191/1
f 190/191/1 191/190/1 185/185/1
f 192/192/1 194/193/1 193/194/1
f 193/194/1 195/195/1 189/189/1
f 194/193/1 195/195/1 193/194/1
f 196/196/1 198/197/1 197/198/1
f 197/198/1 195/195/1 194/193/1
f 196/196/1 199/199/1 198/197/1
f 191/190/1 187/186/1 185/185/1
f 195/195/1 197/198/1 198/197/1
f 191/190/1 189/189/1 195/195/1
f 161/161/1 188/188/1 200/200/1
f 200/200/1 188/188/1 187/186/1
f 184/184/1 182/182/1 183/183/1
f 183/183/1 163/162/1 161/161/1
f 174/173/1 172/172/1 184/184/1
f 161/161/1 162/163/1 188/188/1
f 175/175/1 173/174/1 174/173/1
f 164/164/1 175/175/1 166/165/1
