# Blender v2.90.1 OBJ File: 'map.blend'
# www.blender.org
mtllib map.mtl
o Плоскость
v -35.558231 -31.061701 -0.000000
v 31.557352 -31.061701 -0.000000
v -12.174989 -0.012214 0.000000
v 9.526669 -0.012214 0.000000
v 13.617304 3.098419 0.000000
v -12.444187 14.809858 0.000000
v -35.558231 24.162102 0.000000
v 13.617304 12.254477 0.000000
v 31.557352 22.270609 0.000000
v -2.162792 18.958733 0.000000
v 29.214853 22.270609 0.000000
v 9.304120 14.827253 0.000000
v 2.304654 14.827253 0.000000
v 8.464923 19.599438 0.000000
v -11.013170 24.162102 0.000000
v -3.367205 14.809858 0.000000
v -2.162792 34.126293 0.000000
v 2.304654 30.437948 0.000000
v 6.662652 27.766777 0.000000
v -11.161122 40.466496 0.000000
v -14.404782 3.980588 0.000000
v 2.789208 31.403652 0.000000
v 17.753204 54.232864 0.000002
v 11.008242 60.727585 0.000002
v 17.680647 47.264355 0.000002
v 22.784714 42.242321 0.000002
v 18.642643 47.660553 0.000002
v 57.373959 47.932743 0.000002
v 60.298805 41.620659 0.000002
v 55.443321 54.267063 0.000002
v 50.090038 60.391689 0.000002
v 58.584381 47.912067 0.000002
v 76.019180 41.940964 0.000003
v 78.208527 35.839565 0.000003
v 61.533508 70.125038 0.000003
v 56.609085 72.624725 0.000003
v 60.939880 84.969101 0.000003
v 89.176498 72.431328 0.000004
v 89.159904 87.457283 0.000004
v 80.703743 38.493401 0.000003
v 91.154610 65.389030 0.000005
v 102.505554 62.321716 0.000005
v 92.057526 66.061996 0.000006
v 89.751892 72.616875 0.000004
v 28.094915 54.267063 0.000002
v 26.695440 54.267063 0.000002
v 28.094915 50.828445 0.000002
v 26.695440 50.828445 0.000002
v 33.115280 47.829987 0.000002
v 48.414837 42.324471 0.000002
v 34.459705 47.804859 0.000002
v 33.115280 52.367832 0.000002
v 34.459705 52.342705 0.000002
v 42.191902 54.267063 0.000002
v 43.730152 54.267063 0.000002
v 42.191902 50.292923 0.000002
v 43.730152 50.292923 0.000002
v 44.244011 47.868801 0.000002
v 51.554440 41.588398 0.000002
v 49.118320 47.900772 0.000002
v -11.721722 27.534578 0.000000
v -2.162792 22.249069 0.000000
v -3.367205 18.958733 0.000000
v 9.121167 38.022240 0.000001
v 14.157102 32.962967 0.000001
v 6.512068 35.368828 0.000001
v 10.468166 31.787226 0.000001
v 1.696268 53.412502 0.000001
v 10.821041 47.204739 0.000001
v 13.077939 49.429256 0.000002
v 5.408751 55.582245 0.000002
v -2.162792 9.096183 0.000000
v -3.367205 9.096183 0.000000
v 103.327621 63.012066 0.000005
v 99.048386 69.504189 0.000006
v 95.308266 75.178421 0.000005
v 94.637939 76.195374 0.000005
v 103.040405 63.447803 0.000005
v 95.110634 75.478256 0.000005
v -14.404782 9.634586 0.000000
v 64.467453 53.465851 -0.000000
v 74.242386 49.489357 -0.000000
v 68.325241 64.546494 0.000000
v 82.818542 64.754219 0.000000
vt 0.673984 0.003605
vt 0.359087 0.460845
vt 0.359087 0.240752
vt 0.673984 0.684275
vt 0.327540 0.502332
vt 0.184877 0.246576
vt 0.086844 0.000261
vt 0.133100 0.684276
vt 0.234681 0.502332
vt 0.085357 0.261224
vt 0.184327 0.343083
vt 0.140143 0.355637
vt 0.133100 0.660519
vt 0.208589 0.458589
vt 0.160190 0.450078
vt 0.208589 0.387602
vt 0.464252 0.684797
vt 0.371734 0.872101
vt 0.365971 0.739141
vt 0.050269 0.387602
vt 0.077359 0.431800
vt 0.040475 0.392516
vt 0.465026 0.687636
vt 0.538365 0.815070
vt 0.464773 0.817152
vt 0.779552 0.440259
vt 0.857592 0.339210
vt 0.857592 0.435481
vt 0.469243 0.826870
vt 0.779030 0.055840
vt 0.715500 0.120686
vt 0.716535 0.000261
vt 0.966260 0.038428
vt 0.889882 0.083164
vt 0.908099 0.000261
vt 0.946981 0.126243
vt 0.887465 0.095375
vt 0.966260 0.318776
vt 0.909684 0.283546
vt 0.179387 0.723849
vt 0.253344 0.859453
vt 0.196865 0.865293
vt 0.192930 0.999739
vt 0.828475 0.458199
vt 0.674505 0.756074
vt 0.675876 0.464805
vt 0.934179 0.338101
vt 0.827481 0.000261
vt 0.886944 0.338688
vt 0.779552 0.283175
vt 0.781730 0.294546
vt 0.828475 0.743399
vt 0.827066 0.749454
vt 0.779030 0.457677
vt 0.713995 0.295823
vt 0.714118 0.281434
vt 0.712853 0.387757
vt 0.678763 0.281130
vt 0.932767 0.500607
vt 0.875658 0.607004
vt 0.876923 0.458199
vt 0.932767 0.764125
vt 0.875961 0.620828
vt 0.829300 0.620977
vt 0.828997 0.607154
vt 0.715364 0.136501
vt 0.674641 0.120335
vt 0.875626 0.721426
vt 0.253866 0.684797
vt 0.365449 0.893196
vt 0.253903 0.872394
vt 0.128990 0.349346
vt 0.036585 0.470394
vt 0.000261 0.430273
vt 0.245002 0.356234
vt 0.318593 0.218139
vt 0.464252 0.806914
vt 0.538365 0.684797
vt 0.788674 0.339579
vt 0.253344 0.684797
vt 0.886944 0.006622
vt 0.678639 0.295519
vt 0.674505 0.136150
vt 0.365449 0.703717
vt 0.245075 0.343429
vt 0.596502 0.684797
vt 0.540777 0.809185
vt 0.542300 0.800338
vt 0.596502 0.836143
vt 0.538886 0.812318
vt 0.654570 0.798895
vt 0.641816 0.800170
vt 0.597024 0.740541
vt 0.654570 0.684797
vt 0.645038 0.804461
vt 0.261252 0.218139
vt 0.178865 0.799486
vt 0.058390 0.684797
vt 0.178865 0.690987
vt 0.000261 0.822022
vn 0.0000 -0.0000 1.0000
vn 0.0000 -0.0000 -1.0000
usemtl None
s off
f 1/1/1 4/2/1 3/3/1
f 4/2/1 2/4/1 5/5/1
f 1/1/1 6/6/1 7/7/1
f 5/5/1 9/8/1 8/9/1
f 15/10/1 16/11/1 10/12/1
f 8/9/1 9/8/1 11/13/1
f 8/9/1 11/13/1 12/14/1
f 12/14/1 14/15/1 13/16/1
f 6/6/1 15/10/1 7/7/1
f 62/17/1 20/18/1 61/19/1
f 14/15/1 18/20/1 13/16/1
f 18/20/1 19/21/1 22/22/1
f 64/23/1 26/24/1 25/25/1
f 71/26/1 23/27/1 24/28/1
f 25/25/1 26/24/1 27/29/1
f 31/30/1 55/31/1 30/32/1
f 59/33/1 28/34/1 60/35/1
f 28/34/1 29/36/1 32/37/1
f 32/37/1 34/38/1 33/39/1
f 31/40/1 35/41/1 36/42/1
f 36/42/1 35/41/1 37/43/1
f 35/44/1 39/45/1 37/46/1
f 33/39/1 34/38/1 40/47/1
f 33/48/1 42/49/1 41/50/1
f 41/50/1 42/49/1 43/51/1
f 39/45/1 38/52/1 44/53/1
f 24/54/1 46/55/1 45/56/1
f 24/54/1 23/57/1 46/55/1
f 46/55/1 47/58/1 45/56/1
f 26/59/1 49/60/1 27/61/1
f 49/60/1 50/62/1 51/63/1
f 49/60/1 53/64/1 52/65/1
f 24/54/1 54/66/1 31/30/1
f 31/30/1 54/66/1 55/31/1
f 54/66/1 57/67/1 55/31/1
f 51/63/1 50/62/1 58/68/1
f 20/69/1 69/70/1 68/71/1
f 15/10/2 10/12/2 63/72/2
f 22/22/1 67/73/1 66/74/1
f 16/11/1 72/75/1 10/12/1
f 1/1/1 2/4/1 4/2/1
f 1/1/1 3/3/1 21/76/1
f 5/5/1 2/4/1 9/8/1
f 12/14/1 11/13/1 14/15/1
f 6/6/1 16/11/1 15/10/1
f 62/17/1 17/77/1 20/18/1
f 14/15/1 19/21/1 18/20/1
f 64/23/1 65/78/1 26/24/1
f 71/26/1 70/79/1 23/27/1
f 59/33/1 29/36/1 28/34/1
f 32/37/1 29/36/1 34/38/1
f 31/40/1 30/80/1 35/41/1
f 35/44/1 38/52/1 39/45/1
f 33/48/1 40/81/1 42/49/1
f 46/55/1 48/82/1 47/58/1
f 26/59/1 50/62/1 49/60/1
f 49/60/1 51/63/1 53/64/1
f 24/54/1 45/56/1 54/66/1
f 54/66/1 56/83/1 57/67/1
f 20/69/1 17/84/1 69/70/1
f 22/22/1 19/21/1 67/73/1
f 16/11/1 73/85/1 72/75/1
f 39/86/2 79/87/2 77/88/2
f 39/86/1 44/89/1 76/90/1 79/87/1
f 42/91/1 78/92/1 75/93/1 43/94/1
f 42/91/1 74/95/1 78/92/1
f 1/1/1 21/76/1 80/96/1
f 80/96/1 6/6/1 1/1/1
f 82/97/1 83/98/1 81/99/1
f 82/97/1 84/100/1 83/98/1
