# Blender v2.90.1 OBJ File: 'map.blend'
# www.blender.org
mtllib map.mtl
o Плоскость
v -35.558231 -31.061701 -0.000000
v 31.557352 -31.061701 -0.000000
v -12.718742 -0.012214 0.000000
v 9.526669 -0.012214 0.000000
v 13.617304 3.098419 0.000000
v -12.718742 14.809858 0.000000
v -35.558231 24.162102 0.000000
v 13.617304 12.254477 0.000000
v 31.557352 22.270609 0.000000
v -2.162792 18.958733 0.000000
v 29.214853 22.270609 0.000000
v 9.304120 14.827253 0.000000
v 2.304654 14.827253 0.000000
v 8.464923 19.599438 0.000000
v -11.013170 24.162102 0.000000
v -3.367205 14.809858 0.000000
v -2.162792 34.126293 0.000000
v 2.304654 30.437948 0.000000
v 6.662652 27.766777 0.000000
v -11.721722 39.411804 0.000000
v -11.161122 40.466496 0.000000
v 2.789208 31.403652 0.000000
v 17.753204 54.232864 0.000002
v 9.978821 60.325302 0.000002
v 17.680647 47.264355 0.000002
v 22.784714 42.242321 0.000002
v 18.642643 47.660553 0.000002
v 11.008242 60.727585 0.000002
v 57.373959 47.932743 0.000002
v 60.298805 41.620659 0.000002
v 55.443321 54.267063 0.000002
v 50.090038 60.391689 0.000002
v 56.506699 54.665768 0.000002
v 58.584381 47.912067 0.000002
v 76.019180 41.940964 0.000003
v 78.208527 35.839565 0.000003
v 61.533508 70.125038 0.000003
v 56.609085 72.624725 0.000003
v 60.939880 71.182693 0.000003
v 89.176498 72.431328 0.000004
v 89.159904 73.670876 0.000004
v 80.703743 38.493401 0.000003
v 91.154610 65.389030 0.000005
v 102.505554 62.321716 0.000005
v 92.057526 66.061996 0.000006
v 89.751892 72.616875 0.000004
v 113.684883 76.675423 0.000007
v 111.202377 68.717880 0.000007
v 111.379250 83.230301 0.000006
v 110.874687 84.323929 0.000006
v 117.238396 77.309586 0.000007
v 112.637901 68.977318 0.000007
v 120.294601 76.255302 0.000007
v 113.828606 68.570656 0.000007
v 124.964638 69.283035 0.000006
v 115.538979 65.967903 0.000007
v 117.162575 84.019798 0.000006
v 117.197777 85.223701 0.000006
v 122.679306 81.803970 0.000006
v 123.365143 82.794052 0.000006
v 128.574356 71.304962 0.000004
v 128.713531 73.310860 0.000004
v 112.938950 62.567032 0.000006
v 119.256165 62.417736 0.000006
v 115.075897 54.260662 0.000005
v 116.277489 53.656387 0.000004
v 115.379738 52.332230 0.000004
v 123.494049 49.129948 0.000004
v 123.191360 50.891365 0.000004
v 124.645676 50.382355 0.000004
v 128.641144 62.724728 0.000005
v 129.925079 61.872883 0.000005
v 135.853699 67.385315 0.000006
v 136.490814 65.982384 0.000006
v 145.375519 69.511658 0.000006
v 145.523117 67.977921 0.000006
v 154.235641 68.735855 0.000006
v 153.975296 67.218742 0.000006
v 144.099030 76.228333 0.000005
v 144.254456 74.670525 0.000005
v 156.769241 75.025299 0.000006
v 155.078369 73.827873 0.000006
v 155.536774 67.742004 0.000006
v 142.651611 43.735954 0.000003
v 142.893188 45.331436 0.000003
v 150.475769 48.998970 0.000004
v 151.808914 48.210815 0.000004
v 131.100327 48.533813 0.000003
v 131.604767 46.749832 0.000004
v 132.958145 47.979671 0.000003
v 134.392685 54.949230 0.000005
v 135.868668 53.692249 0.000005
v 140.634399 59.243324 0.000005
v 141.569794 57.545212 0.000005
v 146.384613 60.429371 0.000006
v 146.361389 58.731686 0.000005
v 152.639297 60.487034 0.000006
v 152.235168 58.674728 0.000005
v 153.839661 59.350334 0.000005
v 150.615540 47.634369 0.000004
v 144.247177 44.322102 0.000003
v 157.534943 41.187286 0.000003
v 156.333008 40.428795 0.000003
v 148.813904 36.070580 0.000002
v 149.964645 37.116528 0.000002
v 158.849640 37.651051 0.000002
v 157.466827 37.322697 0.000002
v 150.368973 36.251419 0.000002
v 158.937378 31.380808 0.000001
v 157.540939 31.645266 0.000001
v 149.130203 34.032814 0.000001
v 150.623718 33.563393 0.000001
v 154.818726 23.011169 0.000000
v 154.073593 24.307186 0.000001
v 150.132690 23.991938 -0.000000
v 149.789398 25.038031 -0.000000
v 153.665817 23.145262 0.000000
v 145.054718 24.658594 0.000000
v 146.923874 25.261099 -0.000000
v 153.702591 22.135010 -0.000000
v 145.101669 20.564878 -0.000000
v 146.649033 20.802912 -0.000001
v 159.381485 13.525566 -0.000002
v 158.011703 13.146473 -0.000002
v 149.424286 11.110476 -0.000002
v 150.958145 11.814375 -0.000002
v 150.987305 11.021483 -0.000002
v 159.385773 -18.631361 -0.000003
v 157.964783 -18.659548 -0.000003
v 149.225586 -18.748798 -0.000003
v 150.790527 -18.705322 -0.000004
v 124.866806 55.353546 0.000004
v 126.235931 54.673119 0.000004
v 127.166611 56.887833 0.000005
v 125.751495 57.473816 0.000005
v 145.527695 60.298546 0.000005
v 145.792755 58.468376 0.000005
v 142.020966 59.546772 0.000005
v 142.362778 57.964622 0.000005
v 138.362823 44.907917 0.000003
v 138.173157 46.576241 0.000003
v 139.401428 46.253418 0.000003
v 140.372055 50.326790 0.000004
v 141.330063 49.493080 0.000004
v 142.803513 52.294300 0.000004
v 143.425583 51.187107 0.000004
v 146.176254 52.709408 0.000004
v 145.259613 53.715393 0.000004
v 145.022369 56.042923 0.000005
v 144.499100 55.841381 0.000005
v 147.307266 26.004578 0.000000
v 151.010666 27.743977 0.000000
v 151.665512 27.465309 0.000000
v 159.485153 -1.952505 -0.000002
v 158.063721 -2.518004 -0.000003
v 158.065674 -1.465626 -0.000002
v 153.729095 -2.518004 -0.000003
v 154.387558 -1.465626 -0.000002
v 153.731049 1.540139 -0.000002
v 154.387558 1.540139 -0.000002
v 28.094915 54.267063 0.000002
v 26.695440 54.267063 0.000002
v 28.094915 50.828445 0.000002
v 26.695440 50.828445 0.000002
v 33.115280 47.829987 0.000002
v 48.414837 42.324471 0.000002
v 34.459705 47.804859 0.000002
v 33.115280 52.367832 0.000002
v 34.459705 52.342705 0.000002
v 42.191902 54.267063 0.000002
v 43.730152 54.267063 0.000002
v 42.191902 50.292923 0.000002
v 43.730152 50.292923 0.000002
v 44.244011 47.868801 0.000002
v 51.554440 41.588398 0.000002
v 49.118320 47.900772 0.000002
v -11.721722 27.534578 0.000000
v -2.162792 22.249069 0.000000
v -3.367205 18.958733 0.000000
v 9.121167 38.022240 0.000001
v 14.157102 32.962967 0.000001
v 6.512068 35.368828 0.000001
v 10.468166 31.787226 0.000001
v 1.696268 53.412502 0.000001
v 10.821041 47.204739 0.000001
v 13.077939 49.429256 0.000002
v 5.408751 55.582245 0.000002
v 108.013611 73.918526 0.000006
v 108.664574 67.493889 0.000006
v 108.867905 74.373283 0.000007
v 104.616493 76.495651 0.000007
v 107.140060 77.843620 0.000007
v 106.622551 76.707970 0.000006
v 104.953278 75.814758 0.000006
v 97.572563 77.547768 0.000005
v 98.555542 76.673950 0.000005
v 97.596207 76.233185 0.000005
v 99.962860 73.912094 0.000005
v 96.646271 72.327881 0.000004
v 98.704468 74.060638 0.000005
v 96.347214 72.917191 0.000004
v -2.162792 9.096183 0.000000
v -3.367205 9.096183 0.000000
vt 0.571284 0.000323
vt 0.304418 0.387821
vt 0.304418 0.196625
vt 0.571284 0.577172
vt 0.277683 0.422980
vt 0.177024 0.196625
vt 0.096643 0.000323
vt 0.112900 0.577172
vt 0.198988 0.422980
vt 0.096643 0.211284
vt 0.177024 0.277001
vt 0.141365 0.287352
vt 0.112900 0.557039
vt 0.176875 0.385909
vt 0.135859 0.378696
vt 0.176875 0.325749
vt 0.565252 0.577818
vt 0.483095 0.725329
vt 0.483095 0.623246
vt 0.042703 0.325750
vt 0.565252 0.679901
vt 0.487913 0.734394
vt 0.065661 0.363206
vt 0.034403 0.329914
vt 0.847351 0.263424
vt 0.908659 0.369952
vt 0.847140 0.371693
vt 0.847140 0.464934
vt 0.912378 0.380462
vt 0.903750 0.464916
vt 0.850877 0.379816
vt 0.912378 0.460941
vt 0.876702 0.579042
vt 0.823594 0.633250
vt 0.824460 0.532581
vt 0.338409 0.609724
vt 0.274561 0.647121
vt 0.289789 0.577818
vt 0.339055 0.788507
vt 0.399089 0.752674
vt 0.406721 0.758759
vt 0.322293 0.683133
vt 0.272541 0.657328
vt 0.338409 0.844080
vt 0.291115 0.814630
vt 0.406721 0.898477
vt 0.359827 0.905821
vt 0.399058 0.905545
vt 0.914145 0.460650
vt 0.923649 0.221442
vt 0.923649 0.464934
vt 0.311591 0.860235
vt 0.040389 0.577818
vt 0.090097 0.860726
vt 0.000323 0.814319
vt 0.002144 0.823825
vt 0.913024 0.222235
vt 0.914178 0.217169
vt 0.873779 0.176537
vt 0.886174 0.052521
vt 0.884242 0.180814
vt 0.234514 0.649283
vt 0.184304 0.664911
vt 0.223277 0.604794
vt 0.178135 0.653996
vt 0.207953 0.577818
vt 0.250841 0.900984
vt 0.184693 0.854889
vt 0.267623 0.878838
vt 0.184458 0.828121
vt 0.267623 0.806712
vt 0.875825 0.052767
vt 0.869180 0.000323
vt 0.919457 0.007821
vt 0.886820 0.051270
vt 0.912320 0.000323
vt 0.896890 0.053665
vt 0.907051 0.142633
vt 0.488424 0.838138
vt 0.531174 0.826992
vt 0.545386 0.902404
vt 0.533836 0.748258
vt 0.545386 0.748737
vt 0.544172 0.735040
vt 0.788679 0.536442
vt 0.744798 0.588744
vt 0.775483 0.532581
vt 0.752433 0.602074
vt 0.737947 0.600077
vt 0.583794 0.390429
vt 0.599236 0.439814
vt 0.571930 0.396133
vt 0.609847 0.431890
vt 0.663357 0.476363
vt 0.668155 0.464020
vt 0.746085 0.490062
vt 0.746619 0.476830
vt 0.821747 0.479172
vt 0.889780 0.535405
vt 0.890804 0.669484
vt 0.877348 0.669423
vt 0.906829 0.761409
vt 0.897961 0.776852
vt 0.818789 0.466277
vt 0.832439 0.470022
vt 0.831412 0.522467
vt 0.662759 0.708200
vt 0.654999 0.742671
vt 0.644665 0.733420
vt 0.799774 0.393787
vt 0.791118 0.304193
vt 0.813866 0.398819
vt 0.705289 0.647654
vt 0.711710 0.662238
vt 0.696010 0.661495
vt 0.645457 0.639567
vt 0.648358 0.623159
vt 0.583493 0.628864
vt 0.742989 0.410926
vt 0.749395 0.397082
vt 0.750405 0.411640
vt 0.804108 0.409147
vt 0.780054 0.311594
vt 0.780601 0.299817
vt 0.641217 0.747520
vt 0.656115 0.827196
vt 0.642764 0.826563
vt 0.826224 0.235250
vt 0.836901 0.241185
vt 0.644820 0.834509
vt 0.846494 0.210210
vt 0.665172 0.842432
vt 0.657843 0.853717
vt 0.834471 0.208053
vt 0.844252 0.156360
vt 0.727802 0.888486
vt 0.710033 0.905648
vt 0.721192 0.885658
vt 0.799135 0.097980
vt 0.804910 0.086503
vt 0.795080 0.088204
vt 0.743486 0.882249
vt 0.754023 0.916526
vt 0.794913 0.079517
vt 0.788679 0.995947
vt 0.774662 0.999677
vt 0.839535 0.002922
vt 0.920627 0.795361
vt 0.907484 0.789224
vt 0.920922 0.788548
vt 0.907475 0.532581
vt 0.920922 0.533043
vt 0.445193 0.715714
vt 0.433764 0.854203
vt 0.432979 0.710848
vt 0.703924 0.580346
vt 0.709273 0.568344
vt 0.677006 0.711432
vt 0.669132 0.699338
vt 0.586588 0.645237
vt 0.572643 0.634442
vt 0.634033 0.686518
vt 0.632247 0.697286
vt 0.607151 0.686787
vt 0.609088 0.697529
vt 0.583097 0.690812
vt 0.571930 0.674089
vt 0.576501 0.672561
vt 0.684315 0.899831
vt 0.687129 0.894400
vt 0.445181 0.706669
vt 0.433934 0.577818
vt 0.476794 0.706684
vt 0.482449 0.715732
vt 0.482449 0.680853
vt 0.876702 0.914957
vt 0.822336 0.779656
vt 0.822439 0.767627
vt 0.821382 0.856507
vt 0.792884 0.767373
vt 0.177489 0.613269
vt 0.129749 0.702212
vt 0.130807 0.577818
vt 0.177489 0.833557
vt 0.130002 0.713768
vt 0.090996 0.713893
vt 0.090743 0.702337
vt 0.823481 0.646470
vt 0.789439 0.632956
vt 0.129723 0.797863
vt 0.339055 0.577818
vt 0.432333 0.752028
vt 0.339086 0.734639
vt 0.132320 0.282319
vt 0.031106 0.395914
vt 0.000323 0.361912
vt 0.189784 0.757536
vt 0.236200 0.657429
vt 0.271895 0.806066
vt 0.190151 0.688411
vt 0.262281 0.651304
vt 0.266947 0.641646
vt 0.271895 0.665733
vt 0.265544 0.667246
vt 0.874009 0.185608
vt 0.886174 0.260405
vt 0.847140 0.176133
vt 0.853050 0.185281
vt 0.847471 0.207722
vt 0.853150 0.207798
vt 0.226132 0.287352
vt 0.908659 0.261051
vt 0.854766 0.380771
vt 0.090097 0.583136
vt 0.178135 0.863488
vt 0.860024 0.005152
vt 0.919457 0.154664
vt 0.483095 0.801732
vt 0.906829 0.532581
vt 0.846494 0.531935
vt 0.744389 0.395094
vt 0.832395 0.159296
vt 0.713483 0.914459
vt 0.765580 0.909635
vt 0.827599 0.000323
vt 0.445977 0.854451
vt 0.579037 0.646798
vt 0.582528 0.702495
vt 0.445705 0.581082
vt 0.476806 0.680850
vt 0.792781 0.779402
vt 0.789325 0.646177
vt 0.432333 0.593634
vt 0.875800 0.259827
vt 0.226132 0.277001
vn 0.0000 -0.0000 1.0000
vn 0.0000 -0.0000 -1.0000
usemtl None
s off
f 1/1/1 4/2/1 3/3/1
f 4/2/1 2/4/1 5/5/1
f 1/1/1 6/6/1 7/7/1
f 5/5/1 9/8/1 8/9/1
f 15/10/1 16/11/1 10/12/1
f 8/9/1 9/8/1 11/13/1
f 8/9/1 11/13/1 12/14/1
f 12/14/1 14/15/1 13/16/1
f 6/6/1 15/10/1 7/7/1
f 178/17/1 20/18/1 177/19/1
f 14/15/1 18/20/1 13/16/1
f 20/18/1 17/21/1 21/22/1
f 18/20/1 19/23/1 22/24/1
f 180/25/1 26/26/1 25/27/1
f 187/28/1 23/29/1 24/30/1
f 25/27/1 26/26/1 27/31/1
f 24/30/1 23/29/1 28/32/1
f 32/33/1 171/34/1 31/35/1
f 175/36/1 29/37/1 176/38/1
f 32/39/1 31/40/1 33/41/1
f 29/37/1 30/42/1 34/43/1
f 34/43/1 36/44/1 35/45/1
f 32/39/1 37/46/1 38/47/1
f 38/47/1 37/46/1 39/48/1
f 37/49/1 41/50/1 39/51/1
f 35/45/1 36/44/1 42/52/1
f 35/53/1 44/54/1 43/55/1
f 43/55/1 44/54/1 45/56/1
f 41/50/1 40/57/1 46/58/1
f 196/59/1 50/60/1 195/61/1
f 190/62/1 48/63/1 47/64/1
f 47/64/1 52/65/1 51/66/1
f 51/67/1 54/68/1 53/69/1
f 53/69/1 56/70/1 55/71/1
f 49/72/1 58/73/1 50/60/1
f 57/74/1 60/75/1 58/76/1
f 59/77/1 62/78/1 60/75/1
f 56/79/1 64/80/1 55/81/1
f 64/80/1 65/82/1 66/83/1
f 66/83/1 65/82/1 67/84/1
f 67/85/1 69/86/1 66/87/1
f 69/86/1 68/88/1 70/89/1
f 134/90/1 71/91/1 135/92/1
f 72/93/1 73/94/1 71/91/1
f 74/95/1 75/96/1 73/94/1
f 76/97/1 77/98/1 75/96/1
f 62/99/1 80/100/1 79/101/1
f 79/101/1 82/102/1 81/103/1
f 77/98/1 78/104/1 83/105/1
f 83/105/1 82/106/1 77/98/1
f 142/107/1 84/108/1 85/109/1
f 98/110/1 87/111/1 99/112/1
f 68/88/1 88/113/1 70/89/1
f 88/113/1 89/114/1 90/115/1
f 88/113/1 92/116/1 91/117/1
f 92/116/1 93/118/1 91/117/1
f 136/119/1 96/120/1 95/121/1
f 95/121/1 98/110/1 97/122/1
f 99/112/1 97/122/1 98/110/1
f 83/105/1 97/122/1 99/112/1
f 87/111/1 86/123/1 100/124/1
f 85/109/1 84/108/1 101/125/1
f 101/125/1 104/126/1 105/127/1
f 87/111/1 103/128/1 102/129/1
f 105/127/1 104/126/1 108/130/1
f 103/128/1 106/131/1 102/129/1
f 108/130/1 111/132/1 112/133/1
f 107/134/1 109/135/1 106/131/1
f 119/136/1 116/137/1 151/138/1
f 109/135/1 114/139/1 113/140/1
f 113/140/1 114/139/1 117/141/1
f 118/142/1 122/143/1 119/136/1
f 113/140/1 117/141/1 120/144/1
f 122/143/1 125/145/1 126/146/1
f 120/144/1 123/147/1 113/140/1
f 126/148/1 125/149/1 127/150/1
f 127/150/1 130/151/1 131/152/1
f 155/153/1 128/154/1 154/155/1
f 69/86/1 133/156/1 132/157/1
f 90/115/1 140/158/1 141/159/1
f 94/160/1 138/161/1 93/118/1
f 141/159/1 140/158/1 142/107/1
f 142/107/1 143/162/1 141/159/1
f 144/163/1 145/164/1 143/162/1
f 146/165/1 148/166/1 145/164/1
f 148/166/1 149/167/1 150/168/1
f 111/132/1 151/138/1 112/133/1
f 151/138/1 118/142/1 119/136/1
f 116/137/1 153/169/1 152/170/1
f 154/155/1 156/171/1 155/153/1
f 123/172/1 156/171/1 154/155/1
f 155/153/1 158/173/1 157/174/1
f 158/173/1 159/175/1 157/174/1
f 28/176/1 162/177/1 161/178/1
f 28/176/1 23/179/1 162/177/1
f 162/177/1 163/180/1 161/178/1
f 26/181/1 165/182/1 27/183/1
f 165/182/1 166/184/1 167/185/1
f 165/182/1 169/186/1 168/187/1
f 28/176/1 170/188/1 32/33/1
f 32/33/1 170/188/1 171/34/1
f 170/188/1 173/189/1 171/34/1
f 167/185/1 166/184/1 174/190/1
f 21/191/1 185/192/1 184/193/1
f 15/10/2 10/12/2 179/194/2
f 22/24/1 183/195/1 182/196/1
f 44/197/1 188/198/1 45/199/1
f 188/198/1 189/200/1 190/62/1
f 193/201/1 192/202/1 191/203/1
f 190/62/1 193/201/1 188/198/1
f 193/201/1 191/203/1 194/204/1
f 195/61/1 197/205/1 196/59/1
f 41/206/1 197/205/1 195/61/1
f 198/207/1 200/208/1 199/209/1
f 196/59/1 200/208/1 198/207/1
f 199/209/1 200/208/1 201/210/1
f 16/11/1 202/211/1 10/12/1
f 1/1/1 2/4/1 4/2/1
f 1/1/1 3/3/1 6/6/1
f 5/5/1 2/4/1 9/8/1
f 12/14/1 11/13/1 14/15/1
f 6/6/1 16/11/1 15/10/1
f 178/17/1 17/21/1 20/18/1
f 14/15/1 19/23/1 18/20/1
f 180/25/1 181/212/1 26/26/1
f 187/28/1 186/213/1 23/29/1
f 175/36/1 30/42/1 29/37/1
f 34/43/1 30/42/1 36/44/1
f 32/39/1 33/41/1 37/46/1
f 37/49/1 40/57/1 41/50/1
f 35/53/1 42/214/1 44/54/1
f 196/59/1 49/72/1 50/60/1
f 190/62/1 189/200/1 48/63/1
f 47/64/1 48/63/1 52/65/1
f 51/67/1 52/215/1 54/68/1
f 53/69/1 54/68/1 56/70/1
f 49/72/1 57/216/1 58/73/1
f 57/74/1 59/77/1 60/75/1
f 59/77/1 61/217/1 62/78/1
f 56/79/1 63/218/1 64/80/1
f 64/80/1 63/218/1 65/82/1
f 67/85/1 68/88/1 69/86/1
f 134/90/1 72/93/1 71/91/1
f 72/93/1 74/95/1 73/94/1
f 74/95/1 76/97/1 75/96/1
f 76/97/1 78/104/1 77/98/1
f 62/99/1 61/219/1 80/100/1
f 79/101/1 80/100/1 82/102/1
f 83/105/1 81/220/1 82/106/1
f 142/107/1 140/158/1 84/108/1
f 98/110/1 86/123/1 87/111/1
f 68/88/1 89/114/1 88/113/1
f 88/113/1 90/115/1 92/116/1
f 92/116/1 94/160/1 93/118/1
f 136/119/1 137/221/1 96/120/1
f 95/121/1 96/120/1 98/110/1
f 83/105/1 78/104/1 97/122/1
f 101/125/1 84/108/1 104/126/1
f 87/111/1 100/124/1 103/128/1
f 103/128/1 107/134/1 106/131/1
f 108/130/1 104/126/1 111/132/1
f 107/134/1 110/222/1 109/135/1
f 119/136/1 115/223/1 116/137/1
f 109/135/1 110/222/1 114/139/1
f 118/142/1 121/224/1 122/143/1
f 122/143/1 121/224/1 125/145/1
f 120/144/1 124/225/1 123/147/1
f 127/150/1 125/149/1 130/151/1
f 155/153/1 129/226/1 128/154/1
f 69/86/1 70/89/1 133/156/1
f 90/115/1 89/114/1 140/158/1
f 94/160/1 139/227/1 138/161/1
f 142/107/1 144/163/1 143/162/1
f 144/163/1 146/165/1 145/164/1
f 146/165/1 147/228/1 148/166/1
f 148/166/1 147/228/1 149/167/1
f 111/132/1 118/142/1 151/138/1
f 116/137/1 115/223/1 153/169/1
f 123/172/1 124/229/1 156/171/1
f 155/153/1 156/171/1 158/173/1
f 158/173/1 160/230/1 159/175/1
f 162/177/1 164/231/1 163/180/1
f 26/181/1 166/184/1 165/182/1
f 165/182/1 167/185/1 169/186/1
f 28/176/1 161/178/1 170/188/1
f 170/188/1 172/232/1 173/189/1
f 21/191/1 17/233/1 185/192/1
f 22/24/1 19/23/1 183/195/1
f 44/197/1 189/200/1 188/198/1
f 190/62/1 192/202/1 193/201/1
f 41/206/1 46/234/1 197/205/1
f 196/59/1 197/205/1 200/208/1
f 16/11/1 203/235/1 202/211/1
o Плоскость.002
v 64.467453 53.465851 -0.000000
v 74.242386 49.489357 -0.000000
v 68.325241 64.546494 0.000000
v 82.818542 64.754219 0.000000
vt 0.229249 0.714392
vt 0.122465 0.612737
vt 0.229249 0.618222
vt 0.070942 0.734367
vn -0.0000 -0.0000 1.0000
usemtl None
s off
f 205/236/3 206/237/3 204/238/3
f 205/236/3 207/239/3 206/237/3
o Плоскость.001_Плоскость.003
v 143.352325 -36.796478 -0.000000
v 166.009430 -36.796478 -0.000000
v 144.621063 -35.318535 0.000000
v 164.746475 -35.318535 0.000000
v 143.352325 -27.390835 0.000000
v 166.009430 -27.390835 0.000000
v 144.621063 -27.390835 0.000000
v 164.746475 -27.390835 0.000000
vt 0.229983 0.883902
vt 0.424899 0.870433
vt 0.436461 0.883902
vt 0.241493 0.870433
vt 0.229983 0.798187
vt 0.241493 0.798187
vt 0.436461 0.798187
vt 0.424899 0.798187
vn 0.0000 -0.0000 1.0000
usemtl None
s off
f 209/240/4 210/241/4 208/242/4
f 211/243/4 213/244/4 215/245/4
f 210/241/4 212/246/4 208/242/4
f 209/240/4 211/243/4 210/241/4
f 211/243/4 209/240/4 213/244/4
f 210/241/4 214/247/4 212/246/4
o Плоскость.003_Плоскость.004
v 86.741943 63.460186 -0.000000
v 82.968361 69.520256 0.000000
v 85.842842 63.632538 -0.000000
v 82.695084 68.671432 0.000000
v 84.174706 61.906494 -0.000000
v 83.886856 62.406166 -0.000000
v 80.137222 67.919991 -0.000000
v 80.475189 67.398491 -0.000000
vt 0.501442 0.871138
vt 0.507567 0.930531
vt 0.501364 0.925281
vt 0.480223 0.865821
vt 0.507567 0.865473
vt 0.477957 0.931790
vt 0.478059 0.926127
vt 0.480403 0.871073
vn -0.0000 -0.0000 1.0000
usemtl None
s off
f 218/248/5 217/249/5 219/250/5
f 218/248/5 220/251/5 216/252/5
f 219/250/5 222/253/5 223/254/5
f 218/248/5 216/252/5 217/249/5
f 218/248/5 221/255/5 220/251/5
f 219/250/5 217/249/5 222/253/5
