# Blender v2.90.1 OBJ File: 'map.blend'
# www.blender.org
mtllib map.mtl
o Плоскость
v -35.558231 -31.061701 -0.000000
v 31.557352 -31.061701 -0.000000
v -12.718742 -0.012214 0.000000
v 9.526669 -0.012214 0.000000
v 13.617304 3.098419 0.000000
v -12.718742 14.809858 0.000000
v -35.558231 24.162102 0.000000
v 13.617304 12.254477 0.000000
v 31.557352 22.270609 0.000000
v -2.162792 18.958733 0.000000
v 29.214853 22.270609 0.000000
v 9.304120 14.827253 0.000000
v 2.304654 14.827253 0.000000
v 8.464923 19.599438 0.000000
v -11.013170 24.162102 0.000000
v -3.367205 14.809858 0.000000
v -2.162792 34.126293 0.000000
v 2.304654 30.437948 0.000000
v 6.662652 27.766777 0.000000
v -11.721722 39.411804 0.000000
v -11.161122 40.466496 0.000000
v 2.789208 31.403652 0.000000
v 17.753204 54.232864 0.000002
v 9.978821 60.325302 0.000002
v 17.680647 47.264355 0.000002
v 22.784714 42.242321 0.000002
v 18.642643 47.660553 0.000002
v 11.008242 60.727585 0.000002
v 57.373959 47.932743 0.000002
v 60.298805 41.620659 0.000002
v 55.443321 54.267063 0.000002
v 50.090038 60.391689 0.000002
v 56.506699 54.665768 0.000002
v 58.584381 47.912067 0.000002
v 76.019180 41.940964 0.000003
v 78.208527 35.839565 0.000003
v 61.533508 70.125038 0.000003
v 56.609085 72.624725 0.000003
v 60.939880 71.182693 0.000003
v 89.176498 72.431328 0.000004
v 89.159904 73.670876 0.000004
v 80.703743 38.493401 0.000003
v 91.154610 65.389030 0.000005
v 102.505554 62.321716 0.000005
v 92.057526 66.061996 0.000006
v 89.751892 72.616875 0.000004
v 113.684883 76.675423 0.000007
v 111.202377 68.717880 0.000007
v 111.379250 83.230301 0.000006
v 110.874687 84.323929 0.000006
v 117.238396 77.309586 0.000007
v 112.637901 68.977318 0.000007
v 120.294601 76.255302 0.000007
v 113.828606 68.570656 0.000007
v 124.964638 69.283035 0.000006
v 115.538979 65.967903 0.000007
v 117.162575 84.019798 0.000006
v 117.197777 85.223701 0.000006
v 122.679306 81.803970 0.000006
v 123.365143 82.794052 0.000006
v 128.574356 71.304962 0.000004
v 128.713531 73.310860 0.000004
v 112.938950 62.567032 0.000006
v 119.256165 62.417736 0.000006
v 115.075897 54.260662 0.000005
v 116.277489 53.656387 0.000004
v 115.379738 52.332230 0.000004
v 123.494049 49.129948 0.000004
v 123.191360 50.891365 0.000004
v 124.645676 50.382355 0.000004
v 128.641144 62.724728 0.000005
v 129.925079 61.872883 0.000005
v 135.853699 67.385315 0.000006
v 136.490814 65.982384 0.000006
v 145.375519 69.511658 0.000006
v 145.523117 67.977921 0.000006
v 154.235641 68.735855 0.000006
v 153.975296 67.218742 0.000006
v 144.099030 76.228333 0.000005
v 144.254456 74.670525 0.000005
v 156.769241 75.025299 0.000006
v 155.078369 73.827873 0.000006
v 155.536774 67.742004 0.000006
v 142.651611 43.735954 0.000003
v 142.893188 45.331436 0.000003
v 150.475769 48.998970 0.000004
v 151.808914 48.210815 0.000004
v 131.100327 48.533813 0.000003
v 131.604767 46.749832 0.000004
v 132.958145 47.979671 0.000003
v 134.392685 54.949230 0.000005
v 135.868668 53.692249 0.000005
v 140.634399 59.243324 0.000005
v 141.569794 57.545212 0.000005
v 146.384613 60.429371 0.000006
v 146.361389 58.731686 0.000005
v 152.639297 60.487034 0.000006
v 152.235168 58.674728 0.000005
v 153.839661 59.350334 0.000005
v 150.615540 47.634369 0.000004
v 144.247177 44.322102 0.000003
v 157.534943 41.187286 0.000003
v 156.333008 40.428795 0.000003
v 148.813904 36.070580 0.000002
v 149.964645 37.116528 0.000002
v 158.849640 37.651051 0.000002
v 157.466827 37.322697 0.000002
v 150.368973 36.251419 0.000002
v 158.937378 31.380808 0.000001
v 157.540939 31.645266 0.000001
v 149.130203 34.032814 0.000001
v 150.623718 33.563393 0.000001
v 154.818726 23.011169 0.000000
v 154.073593 24.307186 0.000001
v 150.132690 23.991938 -0.000000
v 149.789398 25.038031 -0.000000
v 153.665817 23.145262 0.000000
v 145.054718 24.658594 0.000000
v 146.923874 25.261099 -0.000000
v 153.702591 22.135010 -0.000000
v 145.101669 20.564878 -0.000000
v 146.649033 20.802912 -0.000001
v 159.381485 13.525566 -0.000002
v 158.011703 13.146473 -0.000002
v 149.424286 11.110476 -0.000002
v 150.958145 11.814375 -0.000002
v 150.987305 11.021483 -0.000002
v 159.385773 -18.631361 -0.000003
v 157.964783 -18.659548 -0.000003
v 149.225586 -18.748798 -0.000003
v 150.790527 -18.705322 -0.000004
v 124.866806 55.353546 0.000004
v 126.235931 54.673119 0.000004
v 127.166611 56.887833 0.000005
v 125.751495 57.473816 0.000005
v 145.527695 60.298546 0.000005
v 145.792755 58.468376 0.000005
v 142.020966 59.546772 0.000005
v 142.362778 57.964622 0.000005
v 138.362823 44.907917 0.000003
v 138.173157 46.576241 0.000003
v 139.401428 46.253418 0.000003
v 140.372055 50.326790 0.000004
v 141.330063 49.493080 0.000004
v 142.803513 52.294300 0.000004
v 143.425583 51.187107 0.000004
v 146.176254 52.709408 0.000004
v 145.259613 53.715393 0.000004
v 145.022369 56.042923 0.000005
v 144.499100 55.841381 0.000005
v 147.307266 26.004578 0.000000
v 151.010666 27.743977 0.000000
v 151.665512 27.465309 0.000000
v 159.485153 -1.952505 -0.000002
v 158.063721 -2.518004 -0.000003
v 158.065674 -1.465626 -0.000002
v 153.729095 -2.518004 -0.000003
v 154.387558 -1.465626 -0.000002
v 153.731049 1.540139 -0.000002
v 154.387558 1.540139 -0.000002
v 28.094915 54.267063 0.000002
v 26.695440 54.267063 0.000002
v 28.094915 50.828445 0.000002
v 26.695440 50.828445 0.000002
v 33.115280 47.829987 0.000002
v 48.414837 42.324471 0.000002
v 34.459705 47.804859 0.000002
v 33.115280 52.367832 0.000002
v 34.459705 52.342705 0.000002
v 42.191902 54.267063 0.000002
v 43.730152 54.267063 0.000002
v 42.191902 50.292923 0.000002
v 43.730152 50.292923 0.000002
v 44.244011 47.868801 0.000002
v 51.554440 41.588398 0.000002
v 49.118320 47.900772 0.000002
v -11.721722 27.534578 0.000000
v -2.162792 22.249069 0.000000
v -3.367205 18.958733 0.000000
v 9.121167 38.022240 0.000001
v 14.157102 32.962967 0.000001
v 6.512068 35.368828 0.000001
v 10.468166 31.787226 0.000001
v 1.696268 53.412502 0.000001
v 10.821041 47.204739 0.000001
v 13.077939 49.429256 0.000002
v 5.408751 55.582245 0.000002
v 108.013611 73.918526 0.000006
v 108.664574 67.493889 0.000006
v 108.867905 74.373283 0.000007
v 104.616493 76.495651 0.000007
v 107.140060 77.843620 0.000007
v 106.622551 76.707970 0.000006
v 104.953278 75.814758 0.000006
v 97.572563 77.547768 0.000005
v 98.555542 76.673950 0.000005
v 97.596207 76.233185 0.000005
v 99.962860 73.912094 0.000005
v 96.646271 72.327881 0.000004
v 98.704468 74.060638 0.000005
v 96.347214 72.917191 0.000004
v -2.162792 9.096183 0.000000
v -3.367205 9.096183 0.000000
vt 0.477223 0.000367
vt 0.322800 0.411233
vt 0.322800 0.208507
vt 0.477223 0.612002
vt 0.294453 0.448512
vt 0.187724 0.208507
vt 0.102496 0.000367
vt 0.119733 0.612002
vt 0.211012 0.448512
vt 0.102496 0.224050
vt 0.187724 0.293729
vt 0.149915 0.304705
vt 0.119733 0.590655
vt 0.187566 0.409205
vt 0.144076 0.401557
vt 0.187566 0.345418
vt 0.329620 0.778755
vt 0.416732 0.622348
vt 0.416732 0.730587
vt 0.045303 0.345418
vt 0.329620 0.670516
vt 0.411624 0.612737
vt 0.069646 0.385133
vt 0.036502 0.349833
vt 0.863417 0.792930
vt 0.928422 0.905882
vt 0.863193 0.907727
vt 0.573879 0.926232
vt 0.643051 0.836666
vt 0.633903 0.926212
vt 0.867155 0.916341
vt 0.643051 0.921997
vt 0.862459 0.545628
vt 0.806149 0.603105
vt 0.807066 0.496365
vt 0.070207 0.646567
vt 0.002509 0.686219
vt 0.018656 0.612737
vt 0.137724 0.773095
vt 0.201377 0.735101
vt 0.209469 0.741553
vt 0.053119 0.724402
vt 0.000367 0.697041
vt 0.070207 0.895055
vt 0.020061 0.863829
vt 0.209470 0.889697
vt 0.159748 0.897483
vt 0.201344 0.897190
vt 0.974685 0.754529
vt 0.984761 0.500896
vt 0.984761 0.759071
vt 0.041772 0.912184
vt 0.520439 0.564771
vt 0.573145 0.864739
vt 0.477957 0.815534
vt 0.479888 0.825614
vt 0.973495 0.501737
vt 0.974719 0.496365
vt 0.944626 0.683206
vt 0.957768 0.551710
vt 0.955721 0.687741
vt 0.726370 0.640546
vt 0.673132 0.657116
vt 0.714455 0.593374
vt 0.666591 0.645543
vt 0.698207 0.564771
vt 0.743681 0.907475
vt 0.673544 0.858600
vt 0.761475 0.883993
vt 0.673294 0.830219
vt 0.761475 0.807517
vt 0.946796 0.551972
vt 0.939750 0.496365
vt 0.963761 0.798365
vt 0.929156 0.844433
vt 0.956194 0.790414
vt 0.939834 0.846973
vt 0.950607 0.941306
vt 0.076592 0.844416
vt 0.121920 0.832598
vt 0.136989 0.912558
vt 0.124743 0.749116
vt 0.136989 0.749624
vt 0.135702 0.735101
vt 0.999633 0.004462
vt 0.953106 0.059918
vt 0.985641 0.000367
vt 0.961201 0.074051
vt 0.945841 0.071934
vt 0.490536 0.413998
vt 0.506910 0.466361
vt 0.477957 0.420046
vt 0.518161 0.457959
vt 0.574898 0.505114
vt 0.579984 0.492026
vt 0.662614 0.519639
vt 0.663180 0.505609
vt 0.742839 0.508092
vt 0.459145 0.615731
vt 0.460231 0.757895
vt 0.445964 0.757831
vt 0.477223 0.855364
vt 0.467820 0.871738
vt 0.739702 0.494420
vt 0.754175 0.498390
vt 0.753087 0.553998
vt 0.866119 0.186576
vt 0.857891 0.223127
vt 0.846934 0.213318
vt 0.719541 0.417559
vt 0.710362 0.322562
vt 0.734483 0.422893
vt 0.911214 0.122380
vt 0.918022 0.137843
vt 0.901375 0.137055
vt 0.847774 0.113805
vt 0.850850 0.096408
vt 0.782073 0.102457
vt 0.659332 0.435731
vt 0.666124 0.421052
vt 0.667195 0.436487
vt 0.724136 0.433844
vt 0.698631 0.330409
vt 0.699212 0.317921
vt 0.843278 0.228268
vt 0.859074 0.312749
vt 0.844919 0.312078
vt 0.747586 0.249461
vt 0.758907 0.255754
vt 0.847098 0.320503
vt 0.769078 0.222912
vt 0.868677 0.328903
vt 0.860907 0.340869
vt 0.756330 0.220624
vt 0.766701 0.165814
vt 0.935084 0.377735
vt 0.916244 0.395932
vt 0.928075 0.374736
vt 0.718863 0.103914
vt 0.724986 0.091744
vt 0.714564 0.093548
vt 0.951714 0.371121
vt 0.962887 0.407466
vt 0.714387 0.084337
vt 0.999633 0.491676
vt 0.984770 0.495631
vt 0.761700 0.003123
vt 0.972448 0.774992
vt 0.958512 0.768485
vt 0.972761 0.767768
vt 0.958503 0.496365
vt 0.972761 0.496856
vt 0.876145 0.642577
vt 0.864026 0.789417
vt 0.863193 0.637417
vt 0.909767 0.051013
vt 0.915438 0.038286
vt 0.881225 0.190003
vt 0.872876 0.177180
vt 0.785355 0.119817
vt 0.770569 0.108371
vt 0.835660 0.163587
vt 0.833767 0.175005
vt 0.807158 0.163872
vt 0.809212 0.175262
vt 0.781653 0.168140
vt 0.769813 0.150409
vt 0.774659 0.148788
vt 0.888975 0.389764
vt 0.891959 0.384005
vt 0.876131 0.632986
vt 0.864206 0.496365
vt 0.909651 0.633002
vt 0.915647 0.642596
vt 0.915647 0.605613
vt 0.862459 0.901800
vt 0.804814 0.758339
vt 0.804924 0.745586
vt 0.803802 0.839826
vt 0.773586 0.745316
vt 0.665857 0.602360
vt 0.615238 0.696667
vt 0.616359 0.564771
vt 0.665857 0.835932
vt 0.615506 0.708919
vt 0.574147 0.709052
vt 0.573879 0.696799
vt 0.806028 0.617123
vt 0.769933 0.602794
vt 0.615209 0.798085
vt 0.229983 0.612737
vt 0.328886 0.797452
vt 0.230016 0.779014
vt 0.140324 0.299368
vt 0.033007 0.419813
vt 0.000367 0.383760
vt 0.678943 0.755327
vt 0.728157 0.649183
vt 0.766005 0.806783
vt 0.679331 0.682034
vt 0.755811 0.642689
vt 0.760758 0.632448
vt 0.766005 0.657988
vt 0.759271 0.659592
vt 0.944870 0.692824
vt 0.957768 0.772131
vt 0.916381 0.682777
vt 0.922647 0.692477
vt 0.916732 0.716271
vt 0.922754 0.716352
vt 0.239794 0.304705
vt 0.928422 0.790414
vt 0.581964 0.836993
vt 0.573145 0.570410
vt 0.666591 0.867718
vt 0.930041 0.501485
vt 0.963761 0.954063
vt 0.070942 0.805815
vt 0.477223 0.612737
vt 0.769079 0.564037
vt 0.660816 0.418944
vt 0.754129 0.168927
vt 0.919902 0.405274
vt 0.975141 0.400159
vt 0.749044 0.000367
vt 0.876975 0.789680
vt 0.777349 0.121472
vt 0.781050 0.180528
vt 0.876687 0.499826
vt 0.909664 0.605610
vt 0.773477 0.758070
vt 0.769813 0.616811
vt 0.328886 0.629507
vt 0.946769 0.771518
vt 0.239794 0.293729
vn 0.0000 -0.0000 1.0000
vn 0.0000 -0.0000 -1.0000
usemtl None
s off
f 1/1/1 4/2/1 3/3/1
f 4/2/1 2/4/1 5/5/1
f 1/1/1 6/6/1 7/7/1
f 5/5/1 9/8/1 8/9/1
f 15/10/1 16/11/1 10/12/1
f 8/9/1 9/8/1 11/13/1
f 8/9/1 11/13/1 12/14/1
f 12/14/1 14/15/1 13/16/1
f 6/6/1 15/10/1 7/7/1
f 178/17/1 20/18/1 177/19/1
f 14/15/1 18/20/1 13/16/1
f 20/18/1 17/21/1 21/22/1
f 18/20/1 19/23/1 22/24/1
f 180/25/1 26/26/1 25/27/1
f 187/28/1 23/29/1 24/30/1
f 25/27/1 26/26/1 27/31/1
f 24/30/1 23/29/1 28/32/1
f 32/33/1 171/34/1 31/35/1
f 175/36/1 29/37/1 176/38/1
f 32/39/1 31/40/1 33/41/1
f 29/37/1 30/42/1 34/43/1
f 34/43/1 36/44/1 35/45/1
f 32/39/1 37/46/1 38/47/1
f 38/47/1 37/46/1 39/48/1
f 37/49/1 41/50/1 39/51/1
f 35/45/1 36/44/1 42/52/1
f 35/53/1 44/54/1 43/55/1
f 43/55/1 44/54/1 45/56/1
f 41/50/1 40/57/1 46/58/1
f 196/59/1 50/60/1 195/61/1
f 190/62/1 48/63/1 47/64/1
f 47/64/1 52/65/1 51/66/1
f 51/67/1 54/68/1 53/69/1
f 53/69/1 56/70/1 55/71/1
f 49/72/1 58/73/1 50/60/1
f 57/74/1 60/75/1 58/76/1
f 59/77/1 62/78/1 60/75/1
f 56/79/1 64/80/1 55/81/1
f 64/80/1 65/82/1 66/83/1
f 66/83/1 65/82/1 67/84/1
f 67/85/1 69/86/1 66/87/1
f 69/86/1 68/88/1 70/89/1
f 134/90/1 71/91/1 135/92/1
f 72/93/1 73/94/1 71/91/1
f 74/95/1 75/96/1 73/94/1
f 76/97/1 77/98/1 75/96/1
f 62/99/1 80/100/1 79/101/1
f 79/101/1 82/102/1 81/103/1
f 77/98/1 78/104/1 83/105/1
f 83/105/1 82/106/1 77/98/1
f 142/107/1 84/108/1 85/109/1
f 98/110/1 87/111/1 99/112/1
f 68/88/1 88/113/1 70/89/1
f 88/113/1 89/114/1 90/115/1
f 88/113/1 92/116/1 91/117/1
f 92/116/1 93/118/1 91/117/1
f 136/119/1 96/120/1 95/121/1
f 95/121/1 98/110/1 97/122/1
f 99/112/1 97/122/1 98/110/1
f 83/105/1 97/122/1 99/112/1
f 87/111/1 86/123/1 100/124/1
f 85/109/1 84/108/1 101/125/1
f 101/125/1 104/126/1 105/127/1
f 87/111/1 103/128/1 102/129/1
f 105/127/1 104/126/1 108/130/1
f 103/128/1 106/131/1 102/129/1
f 108/130/1 111/132/1 112/133/1
f 107/134/1 109/135/1 106/131/1
f 119/136/1 116/137/1 151/138/1
f 109/135/1 114/139/1 113/140/1
f 113/140/1 114/139/1 117/141/1
f 118/142/1 122/143/1 119/136/1
f 113/140/1 117/141/1 120/144/1
f 122/143/1 125/145/1 126/146/1
f 120/144/1 123/147/1 113/140/1
f 126/148/1 125/149/1 127/150/1
f 127/150/1 130/151/1 131/152/1
f 155/153/1 128/154/1 154/155/1
f 69/86/1 133/156/1 132/157/1
f 90/115/1 140/158/1 141/159/1
f 94/160/1 138/161/1 93/118/1
f 141/159/1 140/158/1 142/107/1
f 142/107/1 143/162/1 141/159/1
f 144/163/1 145/164/1 143/162/1
f 146/165/1 148/166/1 145/164/1
f 148/166/1 149/167/1 150/168/1
f 111/132/1 151/138/1 112/133/1
f 151/138/1 118/142/1 119/136/1
f 116/137/1 153/169/1 152/170/1
f 154/155/1 156/171/1 155/153/1
f 123/172/1 156/171/1 154/155/1
f 155/153/1 158/173/1 157/174/1
f 158/173/1 159/175/1 157/174/1
f 28/176/1 162/177/1 161/178/1
f 28/176/1 23/179/1 162/177/1
f 162/177/1 163/180/1 161/178/1
f 26/181/1 165/182/1 27/183/1
f 165/182/1 166/184/1 167/185/1
f 165/182/1 169/186/1 168/187/1
f 28/176/1 170/188/1 32/33/1
f 32/33/1 170/188/1 171/34/1
f 170/188/1 173/189/1 171/34/1
f 167/185/1 166/184/1 174/190/1
f 21/191/1 185/192/1 184/193/1
f 15/10/2 10/12/2 179/194/2
f 22/24/1 183/195/1 182/196/1
f 44/197/1 188/198/1 45/199/1
f 188/198/1 189/200/1 190/62/1
f 193/201/1 192/202/1 191/203/1
f 190/62/1 193/201/1 188/198/1
f 193/201/1 191/203/1 194/204/1
f 195/61/1 197/205/1 196/59/1
f 41/206/1 197/205/1 195/61/1
f 198/207/1 200/208/1 199/209/1
f 196/59/1 200/208/1 198/207/1
f 199/209/1 200/208/1 201/210/1
f 16/11/1 202/211/1 10/12/1
f 1/1/1 2/4/1 4/2/1
f 1/1/1 3/3/1 6/6/1
f 5/5/1 2/4/1 9/8/1
f 12/14/1 11/13/1 14/15/1
f 6/6/1 16/11/1 15/10/1
f 178/17/1 17/21/1 20/18/1
f 14/15/1 19/23/1 18/20/1
f 180/25/1 181/212/1 26/26/1
f 187/28/1 186/213/1 23/29/1
f 175/36/1 30/42/1 29/37/1
f 34/43/1 30/42/1 36/44/1
f 32/39/1 33/41/1 37/46/1
f 37/49/1 40/57/1 41/50/1
f 35/53/1 42/214/1 44/54/1
f 196/59/1 49/72/1 50/60/1
f 190/62/1 189/200/1 48/63/1
f 47/64/1 48/63/1 52/65/1
f 51/67/1 52/215/1 54/68/1
f 53/69/1 54/68/1 56/70/1
f 49/72/1 57/216/1 58/73/1
f 57/74/1 59/77/1 60/75/1
f 59/77/1 61/217/1 62/78/1
f 56/79/1 63/218/1 64/80/1
f 64/80/1 63/218/1 65/82/1
f 67/85/1 68/88/1 69/86/1
f 134/90/1 72/93/1 71/91/1
f 72/93/1 74/95/1 73/94/1
f 74/95/1 76/97/1 75/96/1
f 76/97/1 78/104/1 77/98/1
f 62/99/1 61/219/1 80/100/1
f 79/101/1 80/100/1 82/102/1
f 83/105/1 81/220/1 82/106/1
f 142/107/1 140/158/1 84/108/1
f 98/110/1 86/123/1 87/111/1
f 68/88/1 89/114/1 88/113/1
f 88/113/1 90/115/1 92/116/1
f 92/116/1 94/160/1 93/118/1
f 136/119/1 137/221/1 96/120/1
f 95/121/1 96/120/1 98/110/1
f 83/105/1 78/104/1 97/122/1
f 101/125/1 84/108/1 104/126/1
f 87/111/1 100/124/1 103/128/1
f 103/128/1 107/134/1 106/131/1
f 108/130/1 104/126/1 111/132/1
f 107/134/1 110/222/1 109/135/1
f 119/136/1 115/223/1 116/137/1
f 109/135/1 110/222/1 114/139/1
f 118/142/1 121/224/1 122/143/1
f 122/143/1 121/224/1 125/145/1
f 120/144/1 124/225/1 123/147/1
f 127/150/1 125/149/1 130/151/1
f 155/153/1 129/226/1 128/154/1
f 69/86/1 70/89/1 133/156/1
f 90/115/1 89/114/1 140/158/1
f 94/160/1 139/227/1 138/161/1
f 142/107/1 144/163/1 143/162/1
f 144/163/1 146/165/1 145/164/1
f 146/165/1 147/228/1 148/166/1
f 148/166/1 147/228/1 149/167/1
f 111/132/1 118/142/1 151/138/1
f 116/137/1 115/223/1 153/169/1
f 123/172/1 124/229/1 156/171/1
f 155/153/1 156/171/1 158/173/1
f 158/173/1 160/230/1 159/175/1
f 162/177/1 164/231/1 163/180/1
f 26/181/1 166/184/1 165/182/1
f 165/182/1 167/185/1 169/186/1
f 28/176/1 161/178/1 170/188/1
f 170/188/1 172/232/1 173/189/1
f 21/191/1 17/233/1 185/192/1
f 22/24/1 19/23/1 183/195/1
f 44/197/1 189/200/1 188/198/1
f 190/62/1 192/202/1 193/201/1
f 41/206/1 46/234/1 197/205/1
f 196/59/1 197/205/1 200/208/1
f 16/11/1 203/235/1 202/211/1
o Плоскость.002
v 64.467453 53.465851 -0.000000
v 74.242386 49.489357 -0.000000
v 68.325241 64.546494 0.000000
v 82.818542 64.754219 0.000000
vt 0.229249 0.714392
vt 0.122465 0.612737
vt 0.229249 0.618222
vt 0.070942 0.734367
vn -0.0000 -0.0000 1.0000
usemtl None
s off
f 205/236/3 206/237/3 204/238/3
f 205/236/3 207/239/3 206/237/3
o Плоскость.001_Плоскость.003
v 143.352325 -36.796478 -0.000000
v 166.009430 -36.796478 -0.000000
v 144.621063 -35.318535 0.000000
v 164.746475 -35.318535 0.000000
v 143.352325 -27.390835 0.000000
v 166.009430 -27.390835 0.000000
v 144.621063 -27.390835 0.000000
v 164.746475 -27.390835 0.000000
vt 0.229983 0.883902
vt 0.424899 0.870433
vt 0.436461 0.883902
vt 0.241493 0.870433
vt 0.229983 0.798187
vt 0.241493 0.798187
vt 0.436461 0.798187
vt 0.424899 0.798187
vn 0.0000 -0.0000 1.0000
usemtl None
s off
f 209/240/4 210/241/4 208/242/4
f 211/243/4 213/244/4 215/245/4
f 210/241/4 212/246/4 208/242/4
f 209/240/4 211/243/4 210/241/4
f 211/243/4 209/240/4 213/244/4
f 210/241/4 214/247/4 212/246/4
o Плоскость.003_Плоскость.004
v 86.741943 63.460186 -0.000000
v 82.968361 69.520256 0.000000
v 85.842842 63.632538 -0.000000
v 82.695084 68.671432 0.000000
v 84.174706 61.906494 -0.000000
v 83.886856 62.406166 -0.000000
v 80.137222 67.919991 -0.000000
v 80.475189 67.398491 -0.000000
vt 0.501442 0.871138
vt 0.507567 0.930531
vt 0.501364 0.925281
vt 0.480223 0.865821
vt 0.507567 0.865473
vt 0.477957 0.931790
vt 0.478059 0.926127
vt 0.480403 0.871073
vn -0.0000 -0.0000 1.0000
usemtl None
s off
f 218/248/5 217/249/5 219/250/5
f 218/248/5 220/251/5 216/252/5
f 219/250/5 222/253/5 223/254/5
f 218/248/5 216/252/5 217/249/5
f 218/248/5 221/255/5 220/251/5
f 219/250/5 217/249/5 222/253/5
