# Blender v2.90.1 OBJ File: 'map.blend'
# www.blender.org
mtllib tree_3.mtl
o Плоскость.026
v -9.723554 3.140128 0.000001
v -10.225479 3.368394 0.000001
v -10.321511 3.173122 0.000001
v -9.615713 4.033668 0.000001
v -10.089822 4.363473 0.000001
v -10.198833 3.733438 0.000001
v -11.352223 -0.232650 -0.000000
v -9.710504 -0.123761 0.000000
v -10.083318 0.239145 0.000000
v -9.749206 0.021545 0.000000
v -11.190028 0.274722 0.000000
v -10.144913 0.620129 0.000000
v -10.076267 1.118732 0.000000
v -10.999811 0.912168 0.000000
v -10.084757 1.684877 0.000000
v -10.907879 1.826449 0.000000
v -10.098079 2.214372 0.000000
v -10.887616 3.273620 0.000001
v -11.027602 2.864736 0.000000
v -10.707808 3.082114 0.000001
v -10.503829 3.073846 0.000001
v -9.942629 2.718735 0.000000
v -9.416270 3.436598 0.000001
v -10.153070 3.591161 0.000001
v -11.371199 3.553960 0.000001
v -10.886065 3.578873 0.000001
v -12.306923 4.407345 0.000001
v -11.880285 3.999715 0.000001
v -11.729264 4.242228 0.000001
v -11.256237 4.121028 0.000001
v -12.513452 5.439875 0.000001
v -12.498174 4.990428 0.000001
v -12.315337 5.191458 0.000001
v -12.138039 4.709165 0.000001
v -12.305042 5.693459 0.000001
v -10.667063 3.782301 0.000001
v -10.423999 3.842016 0.000001
v -10.473262 4.257951 0.000001
v -9.437824 3.871096 0.000001
v -10.923452 4.252081 0.000001
v -10.234704 4.283782 0.000001
v -8.989893 3.690106 0.000001
v -9.080017 3.843970 0.000001
v -10.667269 4.315162 0.000001
v -8.627923 3.882679 0.000001
v -8.470989 3.753588 0.000001
v -8.459909 3.973426 0.000001
v -8.134919 3.616037 0.000001
v -11.135183 5.582148 0.000001
v -11.031661 5.116758 0.000001
v -11.020440 5.495308 0.000001
v -10.777194 4.675912 0.000001
v -10.893742 5.118641 0.000001
v -8.627076 4.071783 0.000001
v -8.408918 4.185711 0.000001
v -8.210283 4.642735 0.000001
v -8.471463 4.374011 0.000001
v -10.929689 5.770148 0.000001
v -10.585418 4.665978 0.000001
v -10.640677 4.808479 0.000001
v -10.599430 4.499862 0.000001
v -9.936910 5.371007 0.000001
v -10.097637 4.946216 0.000001
v -9.814970 5.175663 0.000001
v -10.055163 4.671114 0.000001
v -9.846932 4.781206 0.000001
v -9.362387 5.910430 0.000001
v -9.760275 5.775057 0.000001
v -9.688972 5.576354 0.000001
v -9.818625 4.354421 0.000001
vt 0.543362 0.270338
vt 0.587503 0.351057
vt 0.556188 0.369432
vt 0.690722 0.241430
vt 0.751417 0.316274
vt 0.647918 0.342144
vt 0.002121 0.582726
vt 0.000097 0.308212
vt 0.065057 0.365795
vt 0.024750 0.312869
vt 0.084556 0.549512
vt 0.129208 0.371370
vt 0.211333 0.353830
vt 0.188292 0.510040
vt 0.305642 0.348296
vt 0.339298 0.483525
vt 0.393913 0.344016
vt 0.579856 0.462398
vt 0.513536 0.490708
vt 0.545784 0.434828
vt 0.541905 0.400987
vt 0.475930 0.311962
vt 0.588923 0.215569
vt 0.623682 0.336274
vt 0.632438 0.539425
vt 0.630631 0.458395
vt 0.785920 0.684658
vt 0.712856 0.618667
vt 0.751357 0.590562
vt 0.725386 0.513338
vt 0.960265 0.706355
vt 0.885290 0.709327
vt 0.916498 0.676437
vt 0.834070 0.652852
vt 0.999903 0.668565
vt 0.661794 0.419457
vt 0.668748 0.378279
vt 0.738563 0.381373
vt 0.661487 0.213825
vt 0.743110 0.456356
vt 0.739935 0.341360
vt 0.625876 0.141510
vt 0.652584 0.154619
vt 0.750463 0.412953
vt 0.653478 0.078916
vt 0.630072 0.054387
vt 0.666517 0.049846
vt 0.603061 0.000153
vt 0.967028 0.475268
vt 0.888318 0.463752
vt 0.951170 0.457241
vt 0.811840 0.426818
vt 0.886939 0.440780
vt 0.684934 0.076455
vt 0.701215 0.038756
vt 0.774826 0.000097
vt 0.733315 0.046854
vt 0.995789 0.438768
vt 0.807834 0.395029
vt 0.832224 0.402476
vt 0.780365 0.399399
vt 0.917193 0.278468
vt 0.848480 0.310425
vt 0.883192 0.260575
vt 0.802183 0.306733
vt 0.817947 0.270733
vt 0.999903 0.176251
vt 0.982259 0.244120
vt 0.948320 0.234693
vt 0.746584 0.271259
vn 0.0000 -0.0000 1.0000
usemtl None.012
s 1
f 1/1/1 2/2/1 3/3/1
f 4/4/1 5/5/1 6/6/1
f 7/7/1 8/8/1 9/9/1
f 8/8/1 10/10/1 9/9/1
f 11/11/1 7/7/1 9/9/1
f 12/12/1 13/13/1 14/14/1
f 13/13/1 15/15/1 16/16/1
f 14/14/1 13/13/1 16/16/1
f 11/11/1 9/9/1 12/12/1
f 14/14/1 11/11/1 12/12/1
f 15/15/1 17/17/1 16/16/1
f 18/18/1 19/19/1 20/20/1
f 19/19/1 16/16/1 17/17/1
f 20/20/1 19/19/1 21/21/1
f 17/17/1 22/22/1 21/21/1
f 21/21/1 19/19/1 17/17/1
f 22/22/1 1/1/1 3/3/1
f 21/21/1 22/22/1 3/3/1
f 1/1/1 23/23/1 24/24/1
f 1/1/1 24/24/1 2/2/1
f 25/25/1 19/19/1 18/18/1
f 25/25/1 18/18/1 26/26/1
f 27/27/1 28/28/1 29/29/1
f 28/28/1 25/25/1 30/30/1
f 30/30/1 25/25/1 26/26/1
f 31/31/1 32/32/1 33/33/1
f 32/32/1 27/27/1 34/34/1
f 33/33/1 35/35/1 31/31/1
f 34/34/1 33/33/1 32/32/1
f 30/30/1 26/26/1 36/36/1
f 29/29/1 28/28/1 30/30/1
f 29/29/1 34/34/1 27/27/1
f 36/36/1 37/37/1 38/38/1
f 6/6/1 24/24/1 4/4/1
f 24/24/1 23/23/1 39/39/1
f 30/30/1 36/36/1 40/40/1
f 37/37/1 6/6/1 41/41/1
f 24/24/1 39/39/1 4/4/1
f 23/23/1 42/42/1 43/43/1
f 39/39/1 23/23/1 43/43/1
f 40/40/1 36/36/1 44/44/1
f 44/44/1 36/36/1 38/38/1
f 45/45/1 46/46/1 47/47/1
f 46/46/1 48/48/1 47/47/1
f 49/49/1 50/50/1 51/51/1
f 50/50/1 52/52/1 53/53/1
f 42/42/1 45/45/1 43/43/1
f 45/45/1 47/47/1 54/54/1
f 55/55/1 56/56/1 57/57/1
f 45/45/1 54/54/1 43/43/1
f 47/47/1 55/55/1 54/54/1
f 51/51/1 58/58/1 49/49/1
f 59/59/1 60/60/1 52/52/1
f 60/60/1 53/53/1 52/52/1
f 53/53/1 51/51/1 50/50/1
f 61/61/1 59/59/1 52/52/1
f 44/44/1 61/61/1 52/52/1
f 44/44/1 52/52/1 40/40/1
f 55/55/1 57/57/1 54/54/1
f 38/38/1 37/37/1 41/41/1
f 41/41/1 6/6/1 5/5/1
f 62/62/1 63/63/1 64/64/1
f 63/63/1 65/65/1 66/66/1
f 64/64/1 63/63/1 66/66/1
f 67/67/1 68/68/1 69/69/1
f 68/68/1 62/62/1 69/69/1
f 65/65/1 5/5/1 70/70/1
f 69/69/1 62/62/1 64/64/1
f 66/66/1 65/65/1 70/70/1
f 70/70/1 5/5/1 4/4/1
o Плоскость.027
v -10.225479 3.368394 0.000001
v -10.153070 3.591161 0.000001
v -10.423999 3.842016 0.000001
v -10.198833 3.733438 0.000001
v -10.667063 3.782301 0.000001
v -10.886065 3.578873 0.000001
v -10.887616 3.273620 0.000001
v -10.707808 3.082114 0.000001
v -10.503829 3.073846 0.000001
v -10.321511 3.173122 0.000001
vt 0.078077 0.709520
vt 0.116804 0.714782
vt 0.134869 0.773679
vt 0.134869 0.731971
vt 0.108280 0.805882
vt 0.061835 0.824053
vt 0.015847 0.802163
vt 0.000097 0.761261
vt 0.013637 0.730006
vt 0.041770 0.709801
vn 0.0000 -0.0000 1.0000
usemtl None.012
s 1
f 71/71/2 72/72/2 73/73/2
f 72/72/2 74/74/2 73/73/2
f 73/73/2 75/75/2 71/71/2
f 75/75/2 76/76/2 71/71/2
f 76/76/2 77/77/2 71/71/2
f 77/77/2 78/78/2 79/79/2
f 80/80/2 77/77/2 79/79/2
f 80/80/2 71/71/2 77/77/2
