# Blender v2.90.1 OBJ File: 'map.blend'
# www.blender.org
mtllib tree_2.mtl
o Плоскость.024
v -9.112753 10.692879 0.000001
v -8.529451 10.599236 0.000001
v -8.835523 11.009528 0.000001
v -11.451958 15.063832 0.000000
v -11.814459 15.064765 0.000000
v -11.702963 14.630773 0.000000
v -11.223303 14.045996 0.000000
v -11.364914 14.711803 0.000000
v -10.630793 13.553070 0.000000
v -10.659525 14.320960 0.000000
v -10.935784 14.383096 0.000000
v -9.685675 14.820095 0.000000
v -10.274007 12.958370 0.000000
v -9.218911 13.201358 0.000000
v -10.257524 15.060759 0.000000
v -10.903324 15.062420 0.000000
v -10.505121 14.648167 0.000000
v -9.968410 12.363806 0.000000
v -9.281652 12.689642 0.000000
v -10.125704 14.892893 0.000000
v -9.561447 14.847426 0.000000
v -9.633614 14.863309 0.000000
v -8.746747 13.681308 0.000000
v -9.918961 11.687995 0.000001
v -9.109249 12.054468 0.000000
v -9.398406 15.058548 0.000000
v -9.469083 14.999882 0.000000
v -9.460948 14.904511 0.000000
v -8.355036 14.627338 0.000000
v -8.110415 14.871027 0.000000
v -7.555161 15.053805 0.000000
v -5.854413 15.049429 0.000000
v -6.916385 15.052161 0.000000
v -5.990735 14.919125 0.000000
v -7.448059 14.786888 0.000000
v -7.271834 13.953928 0.000000
v -6.010494 14.789664 0.000000
v -6.103809 14.319478 0.000000
v -8.037786 14.607096 0.000000
v -5.725660 14.756555 0.000000
v -4.850919 15.046847 0.000000
v -5.511218 15.048546 0.000000
v -5.524638 14.866122 0.000000
v -10.523712 11.402901 0.000001
v -10.686507 11.792347 0.000001
v -10.841363 11.291104 0.000001
v -11.034216 11.936567 0.000001
v -11.024665 11.670368 0.000001
v -11.453691 12.040024 0.000000
v -10.155080 11.432664 0.000001
v -10.463522 10.921580 0.000001
v -11.853873 11.682738 0.000001
v -12.148918 12.400129 0.000000
v -12.507469 12.308914 0.000000
v -12.373196 12.769258 0.000000
v -12.069416 11.468302 0.000001
v -11.650837 11.016772 0.000001
v -11.190389 10.923450 0.000001
v -11.373608 11.333423 0.000001
v -11.273106 10.606297 0.000001
v -11.520067 10.115531 0.000001
v -11.017533 10.462313 0.000001
v -10.903867 10.871525 0.000001
v -9.972488 10.776991 0.000001
v -9.748318 10.366911 0.000001
v -9.524252 9.915882 0.000001
v -9.461405 10.468550 0.000001
v -9.125886 9.566776 0.000001
v -9.257974 9.956144 0.000001
v -8.932348 9.187490 0.000001
v -8.688359 8.521420 0.000001
v -8.543586 9.084114 0.000001
v -8.869843 9.607071 0.000001
v -8.785968 10.374670 0.000001
v -8.284804 10.189107 0.000001
v -7.680737 10.208025 0.000001
v -8.079287 10.485470 0.000001
v -7.066012 10.390720 0.000001
v -7.444381 10.555496 0.000001
v -6.614667 10.737639 0.000001
v -6.818810 10.973627 0.000001
v -5.979994 10.715530 0.000001
v -8.711143 11.602991 0.000001
v -8.133776 12.373402 0.000000
v -7.841281 12.278461 0.000000
v -7.678944 12.491049 0.000000
v -7.583280 12.275767 0.000000
v -7.265545 12.418276 0.000000
v -8.517604 11.223701 0.000001
v -7.790662 11.252542 0.000001
v -8.025228 11.601226 0.000001
v -7.124091 11.691044 0.000001
v -7.512695 11.855846 0.000001
v 31.358265 50.224373 0.000000
v 31.017448 50.278160 0.000000
v 31.196842 50.039009 0.000000
v 32.731220 47.675201 0.000000
v 32.942936 47.675217 0.000000
v 32.877144 47.928513 0.000000
v 32.596096 48.269302 0.000000
v 32.679836 47.880669 0.000000
v 32.249287 48.556267 0.000000
v 32.267258 48.107841 0.000000
v 32.428699 48.071976 0.000000
v 31.699268 47.814812 0.000000
v 32.039993 48.903046 0.000000
v 31.424152 48.759491 0.000000
v 32.033623 47.675148 0.000000
v 32.410797 47.675179 0.000000
v 32.177586 47.916504 0.000000
v 31.860588 49.249817 0.000000
v 31.460003 49.058449 0.000000
v 31.956375 47.772987 0.000000
v 31.626755 47.798660 0.000000
v 31.668930 47.789497 0.000000
v 31.149136 48.478455 0.000000
v 31.830662 49.644440 0.000000
v 31.358326 49.429153 0.000000
v 31.531857 47.675110 0.000000
v 31.573051 47.709480 0.000000
v 31.568150 47.765167 0.000000
v 30.921829 47.925331 0.000000
v 30.779343 47.782631 0.000000
v 30.455334 47.675018 0.000000
v 29.462029 47.674942 0.000000
v 30.082264 47.674995 0.000000
v 29.541443 47.751259 0.000000
v 30.392365 47.830742 0.000000
v 30.288158 48.316948 0.000000
v 29.552780 47.826897 0.000000
v 29.606556 48.101646 0.000000
v 30.736515 47.936661 0.000000
v 29.386379 47.845787 0.000000
v 28.875950 47.674896 0.000000
v 29.261589 47.674927 0.000000
v 29.269142 47.781487 0.000000
v 32.183418 49.811882 0.000000
v 32.279099 49.584679 0.000000
v 32.368763 49.877663 0.000000
v 32.482395 49.500992 0.000000
v 32.476406 49.656441 0.000000
v 32.727547 49.441223 0.000000
v 31.968170 49.793922 0.000000
v 32.147514 50.092896 0.000000
v 32.960709 49.650505 0.000000
v 33.134140 49.231979 0.000000
v 33.343407 49.285812 0.000000
v 33.265697 49.016747 0.000000
v 33.086266 49.776077 0.000000
v 32.841099 50.039139 0.000000
v 32.572037 50.092934 0.000000
v 32.679680 49.853775 0.000000
v 32.619854 50.278290 0.000000
v 32.763329 50.565292 0.000000
v 32.470364 50.361984 0.000000
v 32.404617 50.122810 0.000000
v 31.860508 50.176582 0.000000
v 31.728951 50.415733 0.000000
v 31.597393 50.678802 0.000000
v 31.561546 50.355927 0.000000
v 31.364189 50.882072 0.000001
v 31.441936 50.654877 0.000000
v 31.250568 51.103294 0.000001
v 31.107040 51.491928 0.000001
v 31.023357 51.163071 0.000001
v 31.214718 50.858147 0.000001
v 31.166916 50.409714 0.000000
v 30.873932 50.517311 0.000000
v 30.521168 50.505325 0.000000
v 30.754360 50.343903 0.000000
v 30.162430 50.397667 0.000000
v 30.383663 50.302025 0.000000
v 29.899364 50.194359 0.000000
v 30.018955 50.056854 0.000000
v 29.528656 50.206291 0.000000
v 31.125118 49.692215 0.000000
v 30.789112 49.241371 0.000000
v 30.618137 49.296364 0.000000
v 30.523655 49.171959 0.000000
v 30.467449 49.297539 0.000000
v 30.282104 49.213821 0.000000
v 31.011497 49.913429 0.000000
v 30.586983 49.895462 0.000000
v 30.724522 49.692177 0.000000
v 30.198360 49.638329 0.000000
v 30.425579 49.542679 0.000000
v 0.738441 33.438278 0.000001
v 1.021938 33.650055 0.000001
v 0.717880 33.689529 0.000001
v -2.116540 34.255035 -0.000000
v -2.268101 34.099548 -0.000000
v -2.034986 33.966522 -0.000000
v -1.583513 33.928932 0.000000
v -1.928868 34.145676 -0.000000
v -1.124479 33.978172 0.000000
v -1.466661 34.286022 0.000000
v -1.608577 34.193138 0.000000
v -1.275209 34.912922 0.000000
v -0.719976 33.883614 0.000000
v -0.384500 34.438637 0.000000
v -1.617153 34.767372 -0.000000
v -1.887158 34.490368 -0.000000
v -1.542979 34.488861 -0.000000
v -0.336875 33.767097 0.000000
v -0.190619 34.198280 0.000000
v -1.490001 34.754059 -0.000000
v -1.235160 34.977737 0.000000
v -1.272083 34.953331 0.000000
v -0.393995 34.841808 0.000000
v -0.025649 33.506554 0.000001
v 0.154405 34.007553 0.000001
v -1.257959 35.135883 -0.000000
v -1.262203 35.081028 -0.000000
v -1.217800 35.044758 0.000000
v -0.637460 35.404736 0.000000
v -0.640244 35.611538 0.000000
v -0.487306 35.926521 0.000000
v 0.223769 36.656036 0.000000
v -0.220236 36.200516 0.000000
v 0.222957 36.543079 0.000000
v -0.327868 35.861275 0.000000
v 0.103798 35.589722 0.000000
v 0.270388 36.480602 0.000000
v 0.433661 36.244411 0.000000
v -0.496466 35.532715 0.000000
v 0.403398 36.589279 0.000000
v 0.643326 37.086472 0.000000
v 0.367258 36.803246 0.000000
v 0.440106 36.721405 0.000000
v -0.155231 33.127625 0.000001
v -0.390581 33.220013 0.000000
v -0.239614 32.944412 0.000001
v -0.597588 33.130634 0.000000
v -0.479137 33.023739 0.000000
v -0.816992 32.993397 0.000000
v -0.014314 33.298550 0.000001
v 0.076841 32.952801 0.000001
v -0.830228 32.672329 0.000000
v -1.261744 32.844601 0.000000
v -1.372033 32.652382 0.000000
v -1.513995 32.902084 0.000000
v -0.827896 32.490227 0.000000
v -0.459191 32.481934 0.000001
v -0.227059 32.641022 0.000001
v -0.479752 32.733185 0.000000
v -0.125172 32.473202 0.000001
v -0.017118 32.162361 0.000001
v 0.043314 32.523064 0.000001
v -0.085255 32.742577 0.000001
v 0.343771 33.103661 0.000001
v 0.613587 33.029053 0.000001
v 0.900968 32.937332 0.000001
v 0.689522 33.194809 0.000001
v 1.217201 32.963058 0.000001
v 0.994689 33.068623 0.000001
v 1.461001 32.888123 0.000001
v 1.849159 32.715298 0.000001
v 1.667564 33.012188 0.000001
v 1.306641 33.089966 0.000001
v 1.011539 33.446114 0.000001
v 1.300315 33.584240 0.000001
v 1.544068 33.851883 0.000001
v 1.258574 33.796196 0.000001
v 1.721840 34.192406 0.000001
v 1.493211 34.098412 0.000001
v 1.760868 34.531151 0.000001
v 1.574265 34.541771 0.000001
v 2.035028 34.794846 0.000001
v 0.514549 33.990486 0.000001
v 0.424021 34.560009 0.000001
v 0.586814 34.646198 0.000001
v 0.563091 34.804649 0.000001
v 0.695556 34.756016 0.000001
v 0.766768 34.952072 0.000001
v 0.758352 33.915546 0.000001
v 1.049078 34.240166 0.000001
v 0.801329 34.284698 0.000001
v 1.138471 34.709652 0.000001
v 0.905560 34.611267 0.000001
vt 0.422814 0.724306
vt 0.341814 0.717226
vt 0.396439 0.672735
vt 0.881761 0.219397
vt 0.930179 0.231440
vt 0.900729 0.285625
vt 0.817076 0.347580
vt 0.858327 0.263463
vt 0.721444 0.393487
vt 0.751054 0.291955
vt 0.790014 0.292934
vt 0.637820 0.192643
vt 0.653859 0.460891
vt 0.521183 0.393042
vt 0.722227 0.179715
vt 0.808483 0.201170
vt 0.741427 0.243098
vt 0.593112 0.529995
vt 0.512382 0.463451
vt 0.698997 0.197697
vt 0.622155 0.184826
vt 0.632321 0.185128
vt 0.474269 0.313131
vt 0.563828 0.618541
vt 0.468049 0.542446
vt 0.607480 0.151173
vt 0.614944 0.161376
vt 0.610657 0.173833
vt 0.453738 0.173709
vt 0.429267 0.132971
vt 0.361287 0.089937
vt 0.134127 0.033434
vt 0.275969 0.068715
vt 0.147950 0.055403
vt 0.338032 0.121969
vt 0.286551 0.227236
vt 0.146242 0.073346
vt 0.142915 0.139238
vt 0.410713 0.165762
vt 0.107111 0.068205
vt 0.000096 0.000096
vt 0.088288 0.022033
vt 0.083957 0.046833
vt 0.634979 0.676894
vt 0.669781 0.630375
vt 0.673626 0.702478
vt 0.721033 0.622796
vt 0.710823 0.658008
vt 0.780497 0.623067
vt 0.586774 0.660547
vt 0.610789 0.739119
vt 0.821920 0.684189
vt 0.885382 0.598337
vt 0.930179 0.622547
vt 0.927708 0.556594
vt 0.843492 0.720047
vt 0.772465 0.766266
vt 0.707873 0.763267
vt 0.746090 0.714695
vt 0.708268 0.808377
vt 0.724760 0.882173
vt 0.669322 0.819017
vt 0.667886 0.760581
vt 0.540394 0.741937
vt 0.496707 0.789149
vt 0.451660 0.841831
vt 0.461822 0.765952
vt 0.386769 0.875057
vt 0.417469 0.827518
vt 0.348205 0.919187
vt 0.293281 0.999904
vt 0.292844 0.919937
vt 0.353945 0.861085
vt 0.368515 0.755811
vt 0.295392 0.763758
vt 0.215398 0.740957
vt 0.277908 0.717302
vt 0.139478 0.695937
vt 0.195512 0.686644
vt 0.090878 0.634482
vt 0.126048 0.609835
vt 0.005421 0.616130
vt 0.399757 0.589346
vt 0.348551 0.467133
vt 0.306322 0.469988
vt 0.291789 0.436163
vt 0.271794 0.461688
vt 0.234167 0.432001
vt 0.361193 0.633477
vt 0.265130 0.605227
vt 0.308143 0.566559
vt 0.190876 0.524323
vt 0.248278 0.515369
vt 0.422814 0.724306
vt 0.341814 0.717226
vt 0.396439 0.672735
vt 0.881761 0.219397
vt 0.930179 0.231440
vt 0.900729 0.285625
vt 0.817076 0.347580
vt 0.858327 0.263463
vt 0.721444 0.393487
vt 0.751054 0.291955
vt 0.790014 0.292934
vt 0.637820 0.192643
vt 0.653859 0.460891
vt 0.521183 0.393042
vt 0.722227 0.179715
vt 0.808483 0.201170
vt 0.741427 0.243098
vt 0.593112 0.529995
vt 0.512382 0.463451
vt 0.698997 0.197697
vt 0.622155 0.184826
vt 0.632321 0.185128
vt 0.474269 0.313131
vt 0.563828 0.618541
vt 0.468049 0.542446
vt 0.607480 0.151173
vt 0.614944 0.161376
vt 0.610657 0.173833
vt 0.453738 0.173709
vt 0.429267 0.132971
vt 0.361287 0.089937
vt 0.134127 0.033434
vt 0.275969 0.068715
vt 0.147950 0.055403
vt 0.338032 0.121969
vt 0.286551 0.227236
vt 0.146242 0.073346
vt 0.142915 0.139238
vt 0.410713 0.165762
vt 0.107111 0.068205
vt 0.000096 0.000096
vt 0.088288 0.022033
vt 0.083957 0.046833
vt 0.634979 0.676894
vt 0.669781 0.630375
vt 0.673626 0.702478
vt 0.721033 0.622796
vt 0.710823 0.658008
vt 0.780497 0.623067
vt 0.586774 0.660547
vt 0.610789 0.739119
vt 0.821920 0.684189
vt 0.885382 0.598337
vt 0.930179 0.622547
vt 0.927708 0.556594
vt 0.843492 0.720047
vt 0.772465 0.766266
vt 0.707873 0.763267
vt 0.746090 0.714695
vt 0.708268 0.808377
vt 0.724760 0.882173
vt 0.669322 0.819017
vt 0.667886 0.760581
vt 0.540394 0.741937
vt 0.496707 0.789149
vt 0.451660 0.841831
vt 0.461822 0.765952
vt 0.386769 0.875057
vt 0.417469 0.827518
vt 0.348205 0.919187
vt 0.293281 0.999904
vt 0.292844 0.919937
vt 0.353945 0.861085
vt 0.368515 0.755811
vt 0.295392 0.763758
vt 0.215398 0.740957
vt 0.277908 0.717302
vt 0.139478 0.695937
vt 0.195512 0.686644
vt 0.090878 0.634482
vt 0.126048 0.609835
vt 0.005421 0.616130
vt 0.399757 0.589346
vt 0.348551 0.467133
vt 0.306322 0.469988
vt 0.291789 0.436163
vt 0.271794 0.461688
vt 0.234167 0.432001
vt 0.361193 0.633477
vt 0.265130 0.605227
vt 0.308143 0.566559
vt 0.190876 0.524323
vt 0.248278 0.515369
vt 0.422814 0.724306
vt 0.341814 0.717226
vt 0.396439 0.672735
vt 0.881761 0.219397
vt 0.930179 0.231440
vt 0.900729 0.285625
vt 0.817076 0.347580
vt 0.858327 0.263463
vt 0.721444 0.393487
vt 0.751054 0.291955
vt 0.790014 0.292934
vt 0.637820 0.192643
vt 0.653859 0.460891
vt 0.521183 0.393042
vt 0.722227 0.179715
vt 0.808483 0.201170
vt 0.741427 0.243098
vt 0.593112 0.529995
vt 0.512382 0.463451
vt 0.698997 0.197697
vt 0.622155 0.184826
vt 0.632321 0.185128
vt 0.474269 0.313131
vt 0.563828 0.618541
vt 0.468049 0.542446
vt 0.607480 0.151173
vt 0.614944 0.161376
vt 0.610657 0.173833
vt 0.453738 0.173709
vt 0.429267 0.132971
vt 0.361287 0.089937
vt 0.134127 0.033434
vt 0.275969 0.068715
vt 0.147950 0.055403
vt 0.338032 0.121969
vt 0.286551 0.227236
vt 0.146242 0.073346
vt 0.142915 0.139238
vt 0.410713 0.165762
vt 0.107111 0.068205
vt 0.000096 0.000096
vt 0.088288 0.022033
vt 0.083957 0.046833
vt 0.634979 0.676894
vt 0.669781 0.630375
vt 0.673626 0.702478
vt 0.721033 0.622796
vt 0.710823 0.658008
vt 0.780497 0.623067
vt 0.586774 0.660547
vt 0.610789 0.739119
vt 0.821920 0.684189
vt 0.885382 0.598337
vt 0.930179 0.622547
vt 0.927708 0.556594
vt 0.843492 0.720047
vt 0.772465 0.766266
vt 0.707873 0.763267
vt 0.746090 0.714695
vt 0.708268 0.808377
vt 0.724760 0.882173
vt 0.669322 0.819017
vt 0.667886 0.760581
vt 0.540394 0.741937
vt 0.496707 0.789149
vt 0.451660 0.841831
vt 0.461822 0.765952
vt 0.386769 0.875057
vt 0.417469 0.827518
vt 0.348205 0.919187
vt 0.293281 0.999904
vt 0.292844 0.919937
vt 0.353945 0.861085
vt 0.368515 0.755811
vt 0.295392 0.763758
vt 0.215398 0.740957
vt 0.277908 0.717302
vt 0.139478 0.695937
vt 0.195512 0.686644
vt 0.090878 0.634482
vt 0.126048 0.609835
vt 0.005421 0.616130
vt 0.399757 0.589346
vt 0.348551 0.467133
vt 0.306322 0.469988
vt 0.291789 0.436163
vt 0.271794 0.461688
vt 0.234167 0.432001
vt 0.361193 0.633477
vt 0.265130 0.605227
vt 0.308143 0.566559
vt 0.190876 0.524323
vt 0.248278 0.515369
vn 0.0000 0.0000 1.0000
usemtl None.010
s 1
f 1/1/1 2/2/1 3/3/1
f 4/4/1 5/5/1 6/6/1
f 6/6/1 7/7/1 8/8/1
f 7/7/1 9/9/1 10/10/1
f 11/11/1 7/7/1 10/10/1
f 8/8/1 4/4/1 6/6/1
f 11/11/1 8/8/1 7/7/1
f 10/10/1 9/9/1 12/12/1
f 9/9/1 13/13/1 14/14/1
f 12/12/1 9/9/1 14/14/1
f 15/15/1 16/16/1 17/17/1
f 17/17/1 10/10/1 12/12/1
f 13/13/1 18/18/1 19/19/1
f 20/20/1 15/15/1 17/17/1
f 21/21/1 22/22/1 12/12/1
f 12/12/1 20/20/1 17/17/1
f 14/14/1 13/13/1 19/19/1
f 21/21/1 12/12/1 23/23/1
f 12/12/1 14/14/1 23/23/1
f 18/18/1 24/24/1 25/25/1
f 26/26/1 27/27/1 28/28/1
f 28/28/1 21/21/1 23/23/1
f 26/26/1 28/28/1 29/29/1
f 30/30/1 31/31/1 26/26/1
f 29/29/1 30/30/1 26/26/1
f 32/32/1 33/33/1 34/34/1
f 33/33/1 35/35/1 36/36/1
f 34/34/1 33/33/1 37/37/1
f 37/37/1 33/33/1 38/38/1
f 35/35/1 39/39/1 36/36/1
f 38/38/1 33/33/1 36/36/1
f 40/40/1 37/37/1 38/38/1
f 41/41/1 42/42/1 43/43/1
f 41/41/1 43/43/1 38/38/1
f 43/43/1 40/40/1 38/38/1
f 23/23/1 36/36/1 39/39/1
f 23/23/1 39/39/1 29/29/1
f 23/23/1 29/29/1 28/28/1
f 44/44/1 45/45/1 46/46/1
f 45/45/1 47/47/1 48/48/1
f 46/46/1 45/45/1 48/48/1
f 47/47/1 49/49/1 48/48/1
f 50/50/1 44/44/1 51/51/1
f 44/44/1 46/46/1 51/51/1
f 52/52/1 53/53/1 54/54/1
f 53/53/1 55/55/1 54/54/1
f 54/54/1 56/56/1 52/52/1
f 56/56/1 57/57/1 52/52/1
f 57/57/1 58/58/1 59/59/1
f 60/60/1 61/61/1 62/62/1
f 58/58/1 60/60/1 63/63/1
f 60/60/1 62/62/1 63/63/1
f 59/59/1 52/52/1 57/57/1
f 58/58/1 63/63/1 46/46/1
f 59/59/1 58/58/1 46/46/1
f 63/63/1 51/51/1 46/46/1
f 51/51/1 64/64/1 50/50/1
f 65/65/1 66/66/1 67/67/1
f 66/66/1 68/68/1 69/69/1
f 67/67/1 66/66/1 69/69/1
f 64/64/1 65/65/1 67/67/1
f 70/70/1 71/71/1 72/72/1
f 50/50/1 64/64/1 24/24/1
f 68/68/1 70/70/1 73/73/1
f 70/70/1 72/72/1 73/73/1
f 73/73/1 69/69/1 68/68/1
f 64/64/1 67/67/1 1/1/1
f 24/24/1 64/64/1 1/1/1
f 19/19/1 18/18/1 25/25/1
f 1/1/1 74/74/1 2/2/1
f 74/74/1 75/75/1 2/2/1
f 75/75/1 76/76/1 77/77/1
f 2/2/1 75/75/1 77/77/1
f 76/76/1 78/78/1 79/79/1
f 78/78/1 80/80/1 81/81/1
f 79/79/1 78/78/1 81/81/1
f 80/80/1 82/82/1 81/81/1
f 25/25/1 24/24/1 83/83/1
f 24/24/1 1/1/1 3/3/1
f 83/83/1 24/24/1 3/3/1
f 76/76/1 79/79/1 77/77/1
f 84/84/1 85/85/1 86/86/1
f 85/85/1 87/87/1 86/86/1
f 88/88/1 86/86/1 87/87/1
f 89/89/1 90/90/1 91/91/1
f 90/90/1 92/92/1 93/93/1
f 88/88/1 87/87/1 93/93/1
f 92/92/1 88/88/1 93/93/1
f 90/90/1 93/93/1 91/91/1
f 3/3/1 89/89/1 83/83/1
f 89/89/1 91/91/1 83/83/1
usemtl None.011
f 94/94/1 95/95/1 96/96/1
f 97/97/1 98/98/1 99/99/1
f 99/99/1 100/100/1 101/101/1
f 100/100/1 102/102/1 103/103/1
f 104/104/1 100/100/1 103/103/1
f 101/101/1 97/97/1 99/99/1
f 104/104/1 101/101/1 100/100/1
f 103/103/1 102/102/1 105/105/1
f 102/102/1 106/106/1 107/107/1
f 105/105/1 102/102/1 107/107/1
f 108/108/1 109/109/1 110/110/1
f 110/110/1 103/103/1 105/105/1
f 106/106/1 111/111/1 112/112/1
f 113/113/1 108/108/1 110/110/1
f 114/114/1 115/115/1 105/105/1
f 105/105/1 113/113/1 110/110/1
f 107/107/1 106/106/1 112/112/1
f 114/114/1 105/105/1 116/116/1
f 105/105/1 107/107/1 116/116/1
f 111/111/1 117/117/1 118/118/1
f 119/119/1 120/120/1 121/121/1
f 121/121/1 114/114/1 116/116/1
f 119/119/1 121/121/1 122/122/1
f 123/123/1 124/124/1 119/119/1
f 122/122/1 123/123/1 119/119/1
f 125/125/1 126/126/1 127/127/1
f 126/126/1 128/128/1 129/129/1
f 127/127/1 126/126/1 130/130/1
f 130/130/1 126/126/1 131/131/1
f 128/128/1 132/132/1 129/129/1
f 131/131/1 126/126/1 129/129/1
f 133/133/1 130/130/1 131/131/1
f 134/134/1 135/135/1 136/136/1
f 134/134/1 136/136/1 131/131/1
f 136/136/1 133/133/1 131/131/1
f 116/116/1 129/129/1 132/132/1
f 116/116/1 132/132/1 122/122/1
f 116/116/1 122/122/1 121/121/1
f 137/137/1 138/138/1 139/139/1
f 138/138/1 140/140/1 141/141/1
f 139/139/1 138/138/1 141/141/1
f 140/140/1 142/142/1 141/141/1
f 143/143/1 137/137/1 144/144/1
f 137/137/1 139/139/1 144/144/1
f 145/145/1 146/146/1 147/147/1
f 146/146/1 148/148/1 147/147/1
f 147/147/1 149/149/1 145/145/1
f 149/149/1 150/150/1 145/145/1
f 150/150/1 151/151/1 152/152/1
f 153/153/1 154/154/1 155/155/1
f 151/151/1 153/153/1 156/156/1
f 153/153/1 155/155/1 156/156/1
f 152/152/1 145/145/1 150/150/1
f 151/151/1 156/156/1 139/139/1
f 152/152/1 151/151/1 139/139/1
f 156/156/1 144/144/1 139/139/1
f 144/144/1 157/157/1 143/143/1
f 158/158/1 159/159/1 160/160/1
f 159/159/1 161/161/1 162/162/1
f 160/160/1 159/159/1 162/162/1
f 157/157/1 158/158/1 160/160/1
f 163/163/1 164/164/1 165/165/1
f 143/143/1 157/157/1 117/117/1
f 161/161/1 163/163/1 166/166/1
f 163/163/1 165/165/1 166/166/1
f 166/166/1 162/162/1 161/161/1
f 157/157/1 160/160/1 94/94/1
f 117/117/1 157/157/1 94/94/1
f 112/112/1 111/111/1 118/118/1
f 94/94/1 167/167/1 95/95/1
f 167/167/1 168/168/1 95/95/1
f 168/168/1 169/169/1 170/170/1
f 95/95/1 168/168/1 170/170/1
f 169/169/1 171/171/1 172/172/1
f 171/171/1 173/173/1 174/174/1
f 172/172/1 171/171/1 174/174/1
f 173/173/1 175/175/1 174/174/1
f 118/118/1 117/117/1 176/176/1
f 117/117/1 94/94/1 96/96/1
f 176/176/1 117/117/1 96/96/1
f 169/169/1 172/172/1 170/170/1
f 177/177/1 178/178/1 179/179/1
f 178/178/1 180/180/1 179/179/1
f 181/181/1 179/179/1 180/180/1
f 182/182/1 183/183/1 184/184/1
f 183/183/1 185/185/1 186/186/1
f 181/181/1 180/180/1 186/186/1
f 185/185/1 181/181/1 186/186/1
f 183/183/1 186/186/1 184/184/1
f 96/96/1 182/182/1 176/176/1
f 182/182/1 184/184/1 176/176/1
usemtl None.033
f 187/187/1 188/188/1 189/189/1
f 190/190/1 191/191/1 192/192/1
f 192/192/1 193/193/1 194/194/1
f 193/193/1 195/195/1 196/196/1
f 197/197/1 193/193/1 196/196/1
f 194/194/1 190/190/1 192/192/1
f 197/197/1 194/194/1 193/193/1
f 196/196/1 195/195/1 198/198/1
f 195/195/1 199/199/1 200/200/1
f 198/198/1 195/195/1 200/200/1
f 201/201/1 202/202/1 203/203/1
f 203/203/1 196/196/1 198/198/1
f 199/199/1 204/204/1 205/205/1
f 206/206/1 201/201/1 203/203/1
f 207/207/1 208/208/1 198/198/1
f 198/198/1 206/206/1 203/203/1
f 200/200/1 199/199/1 205/205/1
f 207/207/1 198/198/1 209/209/1
f 198/198/1 200/200/1 209/209/1
f 204/204/1 210/210/1 211/211/1
f 212/212/1 213/213/1 214/214/1
f 214/214/1 207/207/1 209/209/1
f 212/212/1 214/214/1 215/215/1
f 216/216/1 217/217/1 212/212/1
f 215/215/1 216/216/1 212/212/1
f 218/218/1 219/219/1 220/220/1
f 219/219/1 221/221/1 222/222/1
f 220/220/1 219/219/1 223/223/1
f 223/223/1 219/219/1 224/224/1
f 221/221/1 225/225/1 222/222/1
f 224/224/1 219/219/1 222/222/1
f 226/226/1 223/223/1 224/224/1
f 227/227/1 228/228/1 229/229/1
f 227/227/1 229/229/1 224/224/1
f 229/229/1 226/226/1 224/224/1
f 209/209/1 222/222/1 225/225/1
f 209/209/1 225/225/1 215/215/1
f 209/209/1 215/215/1 214/214/1
f 230/230/1 231/231/1 232/232/1
f 231/231/1 233/233/1 234/234/1
f 232/232/1 231/231/1 234/234/1
f 233/233/1 235/235/1 234/234/1
f 236/236/1 230/230/1 237/237/1
f 230/230/1 232/232/1 237/237/1
f 238/238/1 239/239/1 240/240/1
f 239/239/1 241/241/1 240/240/1
f 240/240/1 242/242/1 238/238/1
f 242/242/1 243/243/1 238/238/1
f 243/243/1 244/244/1 245/245/1
f 246/246/1 247/247/1 248/248/1
f 244/244/1 246/246/1 249/249/1
f 246/246/1 248/248/1 249/249/1
f 245/245/1 238/238/1 243/243/1
f 244/244/1 249/249/1 232/232/1
f 245/245/1 244/244/1 232/232/1
f 249/249/1 237/237/1 232/232/1
f 237/237/1 250/250/1 236/236/1
f 251/251/1 252/252/1 253/253/1
f 252/252/1 254/254/1 255/255/1
f 253/253/1 252/252/1 255/255/1
f 250/250/1 251/251/1 253/253/1
f 256/256/1 257/257/1 258/258/1
f 236/236/1 250/250/1 210/210/1
f 254/254/1 256/256/1 259/259/1
f 256/256/1 258/258/1 259/259/1
f 259/259/1 255/255/1 254/254/1
f 250/250/1 253/253/1 187/187/1
f 210/210/1 250/250/1 187/187/1
f 205/205/1 204/204/1 211/211/1
f 187/187/1 260/260/1 188/188/1
f 260/260/1 261/261/1 188/188/1
f 261/261/1 262/262/1 263/263/1
f 188/188/1 261/261/1 263/263/1
f 262/262/1 264/264/1 265/265/1
f 264/264/1 266/266/1 267/267/1
f 265/265/1 264/264/1 267/267/1
f 266/266/1 268/268/1 267/267/1
f 211/211/1 210/210/1 269/269/1
f 210/210/1 187/187/1 189/189/1
f 269/269/1 210/210/1 189/189/1
f 262/262/1 265/265/1 263/263/1
f 270/270/1 271/271/1 272/272/1
f 271/271/1 273/273/1 272/272/1
f 274/274/1 272/272/1 273/273/1
f 275/275/1 276/276/1 277/277/1
f 276/276/1 278/278/1 279/279/1
f 274/274/1 273/273/1 279/279/1
f 278/278/1 274/274/1 279/279/1
f 276/276/1 279/279/1 277/277/1
f 189/189/1 275/275/1 269/269/1
f 275/275/1 277/277/1 269/269/1
